# Blender 3.5.1
# www.blender.org
mtllib dagger_low.mtl
o blade_low
v 1.000000 0.000000 -5.262235
v 0.476163 0.000024 7.622550
v -1.000000 0.000000 -5.262235
v -0.476163 0.000024 7.622550
v 0.000000 -0.125839 -5.262234
v 0.000000 0.000000 10.784481
v 0.000000 0.161795 7.618991
v 0.000000 0.125872 -5.262234
v 0.000000 -0.161530 7.614908
v -0.768357 0.000012 1.461751
v 0.768357 0.000012 1.461751
v -0.241281 0.225415 -5.636285
v -0.190628 0.221125 -5.636285
v 0.816599 0.000010 0.244721
v -0.816599 0.000010 0.244721
v 0.241280 0.225415 -5.636285
v 0.000000 -0.129425 0.241454
v 0.000000 0.129518 0.243199
v 0.157440 0.220513 -5.636285
v 0.190628 0.221125 -5.636285
v -0.020965 0.178190 1.613004
v 0.000000 -0.125839 -5.636284
v 0.157440 0.220513 -5.262234
v 0.241280 0.225415 -5.262234
v 0.190628 0.221125 -5.262234
v -0.241281 0.225415 -5.262234
v -0.157440 0.220513 -5.262234
v -0.190628 0.221125 -5.262234
v 0.115080 0.203585 0.243797
v 0.193528 0.208075 0.244014
v -0.193528 0.208075 0.244014
v -0.115080 0.203585 0.243797
v 0.020962 -0.178108 1.613090
v 0.000000 0.125872 -5.636284
v 0.241281 -0.225415 -5.262234
v 0.157450 -0.220514 -5.262234
v 0.190628 -0.221125 -5.262234
v -0.157450 -0.220514 -5.262234
v -0.241281 -0.225415 -5.262234
v -0.190628 -0.221125 -5.262234
v 0.115090 -0.203520 0.242738
v 0.193535 -0.208009 0.243202
v -0.193535 -0.208009 0.243202
v -0.115090 -0.203520 0.242738
v -0.157440 0.220513 -5.636285
v 1.000000 -0.000000 -5.636285
v -1.000000 -0.000000 -5.636285
v 0.190628 -0.221125 -5.636285
v 0.241281 -0.225415 -5.636285
v 0.157450 -0.220514 -5.636285
v -0.190628 -0.221125 -5.636285
v -0.157450 -0.220514 -5.636285
v -0.241281 -0.225415 -5.636285
v -0.241281 -0.000000 -5.636285
v -0.190628 -0.000000 -5.636285
v -0.157445 -0.000000 -5.636285
v 0.000000 -0.000000 -5.636284
v 0.157445 -0.000000 -5.636285
v 0.190628 -0.000000 -5.636285
v 0.241281 -0.000000 -5.636285
v -0.187926 0.222296 -5.262234
v 0.187975 0.222299 -5.262234
v 0.187926 -0.222295 -5.262234
v -0.187975 -0.222298 -5.262234
vn -0.3210 0.9459 0.0483
vn 0.3202 -0.9461 0.0482
vn -0.5264 0.8503 -0.0010
vn -0.2993 0.9541 0.0078
vn -0.3202 -0.9461 0.0482
vn 0.3210 0.9459 0.0483
vn 0.5153 -0.8570 -0.0000
vn 0.0844 -0.9964 -0.0000
vn 0.5410 0.8407 -0.0216
vn -0.2686 0.9632 0.0082
vn -0.2673 -0.9629 0.0383
vn 0.2745 -0.9610 0.0345
vn -0.2746 0.9609 0.0346
vn 0.2993 0.9541 0.0078
vn -0.5407 0.8404 -0.0381
vn 0.5406 -0.8404 -0.0381
vn 0.2993 -0.9541 0.0078
vn -0.0000 -0.0000 -1.0000
vn 0.5264 0.8503 -0.0010
vn 0.2674 0.9628 0.0383
vn 0.2684 -0.9633 0.0082
vn 0.5265 -0.8502 -0.0010
vn -0.5410 -0.8407 -0.0216
vn 0.2848 -0.9586 -0.0000
vn -0.5265 -0.8502 -0.0010
vn -0.2993 -0.9541 0.0078
vn 0.5152 0.8571 -0.0000
vn -0.0000 0.0008 -1.0000
vn -0.0000 0.0007 -1.0000
vn -0.0576 0.9983 0.0026
vn 0.0584 0.9983 0.0026
vn -0.0572 0.9983 0.0128
vn 0.0572 0.9983 0.0146
vn 0.2602 0.9655 0.0071
vn 0.0572 -0.9983 0.0128
vn -0.0572 -0.9983 0.0146
vn -0.0584 -0.9983 0.0026
vn 0.0576 -0.9983 0.0026
vn -0.2600 -0.9656 0.0071
vn -0.0184 0.9998 -0.0000
vn -0.2848 0.9586 -0.0000
vn -0.2848 -0.9586 -0.0000
vn -0.0844 -0.9964 -0.0000
vn -0.0844 0.9964 -0.0000
vn 0.2848 0.9586 -0.0000
vn 0.0844 0.9964 -0.0000
vn -0.0184 -0.9998 -0.0000
vn -0.5153 -0.8570 -0.0000
vn 0.0184 -0.9998 -0.0000
vn -0.5152 0.8571 -0.0000
vn 0.0184 0.9998 -0.0000
vn 0.0576 0.9983 0.0026
vn -0.0000 0.0001 -1.0000
vn -0.0584 0.9983 0.0026
vn -0.0576 -0.9983 0.0026
vn -0.0000 -0.0005 -1.0000
vn 0.0584 -0.9983 0.0026
vn -0.0000 -0.0001 -1.0000
vt 0.145120 0.047233
vt 0.287694 0.960281
vt 0.107319 0.806534
vt 0.244684 0.194349
vt 0.161394 0.961923
vt 0.019841 0.046517
vt 0.185119 0.195073
vt 0.048345 0.806147
vt 0.082463 0.049761
vt 0.076617 0.991701
vt 0.212627 0.007546
vt 0.214907 0.195189
vt 0.224508 0.958002
vt 0.077837 0.805630
vt 0.172272 0.562752
vt 0.033506 0.442197
vt 0.126850 0.442772
vt 0.266537 0.561570
vt 0.208987 0.979022
vt 0.211835 0.979100
vt 0.131497 0.371521
vt 0.271650 0.633467
vt 0.168946 0.634783
vt 0.029756 0.370921
vt 0.240565 0.978611
vt 0.080632 0.370373
vt 0.220307 0.634880
vt 0.235861 0.978789
vt 0.237721 0.978763
vt 0.218083 0.553715
vt 0.082602 0.025328
vt 0.234981 0.957659
vt 0.239912 0.957529
vt 0.236907 0.957682
vt 0.209091 0.957928
vt 0.214025 0.957930
vt 0.212099 0.958003
vt 0.228339 0.634656
vt 0.232955 0.634552
vt 0.207657 0.634889
vt 0.212274 0.634877
vt 0.081330 0.450865
vt 0.224819 0.982071
vt 0.097901 0.050145
vt 0.093034 0.050045
vt 0.094962 0.050016
vt 0.071889 0.049923
vt 0.067022 0.049968
vt 0.069962 0.049873
vt 0.088567 0.370564
vt 0.093142 0.370652
vt 0.068118 0.370518
vt 0.072694 0.370486
vt 0.213695 0.979078
vt 0.143776 0.024254
vt 0.285743 0.984120
vt 0.163964 0.985705
vt 0.021447 0.023557
vt 0.095623 0.028582
vt 0.098477 0.028708
vt 0.093743 0.028565
vt 0.069546 0.028433
vt 0.071425 0.028438
vt 0.066690 0.028527
vt 0.209534 0.992103
vt 0.067038 0.015361
vt 0.070101 0.015466
vt 0.212562 0.991953
vt 0.214690 0.991814
vt 0.072253 0.015577
vt 0.224935 0.990999
vt 0.082654 0.016302
vt 0.235197 0.991546
vt 0.093062 0.015695
vt 0.237329 0.991630
vt 0.095216 0.015609
vt 0.098279 0.015538
vt 0.240359 0.991701
vt 0.212251 0.957926
vt 0.236756 0.957609
vt 0.094810 0.050089
vt 0.070111 0.049948
s 0
usemtl Material
f 7/12/1 4/7/1 6/11/1
f 9/14/2 2/3/2 6/10/2
f 23/32/3 8/13/3 18/27/3 29/38/3
f 26/35/4 3/5/4 15/23/4 31/40/4
f 4/8/5 9/14/5 6/10/5
f 2/4/6 7/12/6 6/11/6
f 5/9/7 38/47/7 52/63/7 22/31/7
f 40/49/8 39/48/8 53/64/8 51/62/8
f 18/27/9 32/41/9 21/30/9
f 21/30/10 10/15/10 4/7/10 7/12/10
f 15/24/11 43/52/11 33/42/11 10/16/11
f 42/51/12 14/21/12 11/17/12 33/42/12
f 31/40/13 15/23/13 10/15/13 21/30/13
f 1/2/14 24/33/14 30/39/14 14/22/14
f 29/38/15 18/27/15 21/30/15
f 44/53/16 17/26/16 33/42/16
f 35/44/17 1/1/17 14/21/17 42/51/17
f 58/73/18 19/28/18 20/29/18 59/75/18
f 8/13/19 27/36/19 32/41/19 18/27/19
f 14/22/20 30/39/20 21/30/20 11/18/20
f 33/42/21 11/17/21 2/3/21 9/14/21
f 38/47/22 5/9/22 17/26/22 44/53/22
f 17/26/23 41/50/23 33/42/23
f 1/1/24 35/44/24 49/60/24 46/55/24
f 5/9/25 36/45/25 41/50/25 17/26/25
f 3/6/26 39/48/26 43/52/26 15/24/26
f 27/36/27 8/13/27 34/43/27 45/54/27
f 62/80/28 24/33/28 25/34/28
f 61/79/29 27/36/29 28/37/29
f 29/38/30 30/39/30 24/33/30 62/80/30
f 61/79/31 32/41/31 27/36/31
f 29/38/32 21/30/32 30/39/32
f 31/40/33 21/30/33 32/41/33
f 11/18/34 21/30/34 7/12/34 2/4/34
f 63/81/18 36/45/18 37/46/18
f 64/82/18 39/48/18 40/49/18
f 44/53/35 33/42/35 43/52/35
f 42/51/36 33/42/36 41/50/36
f 63/81/37 41/50/37 36/45/37
f 44/53/38 43/52/38 39/48/38 64/82/38
f 10/16/39 33/42/39 9/14/39 4/8/39
f 54/66/18 55/67/18 51/62/18 53/64/18
f 56/69/18 55/68/18 13/20/18 45/54/18
f 60/78/18 59/75/18 20/29/18 16/25/18
f 23/32/40 25/34/40 20/29/40 19/28/40
f 3/5/41 26/35/41 12/19/41 47/57/41
f 39/48/42 3/6/42 47/58/42 53/64/42
f 35/44/43 37/46/43 48/59/43 49/60/43
f 25/34/44 24/33/44 16/25/44 20/29/44
f 24/33/45 1/2/45 46/56/45 16/25/45
f 26/35/46 28/37/46 13/20/46 12/19/46
f 37/46/47 36/45/47 50/61/47 48/59/47
f 36/45/48 5/9/48 22/31/48 50/61/48
f 38/47/49 40/49/49 51/62/49 52/63/49
f 8/13/50 23/32/50 19/28/50 34/43/50
f 28/37/51 27/36/51 45/54/51 13/20/51
f 46/55/18 49/60/18 60/77/18
f 57/71/18 34/43/18 19/28/18 58/73/18
f 57/71/18 56/69/18 45/54/18 34/43/18
f 47/57/18 12/19/18 54/65/18
f 49/60/18 48/59/18 59/76/18 60/77/18
f 50/61/18 58/74/18 59/76/18 48/59/18
f 22/31/18 57/72/18 58/74/18 50/61/18
f 22/31/18 52/63/18 56/70/18 57/72/18
f 52/63/18 51/62/18 55/67/18 56/70/18
f 12/19/18 13/20/18 55/68/18 54/65/18
f 53/64/18 47/58/18 54/66/18
f 16/25/18 46/56/18 60/78/18
f 26/35/52 31/40/52 32/41/52 61/79/52
f 26/35/53 61/79/53 28/37/53
f 23/32/54 29/38/54 62/80/54
f 23/32/53 62/80/53 25/34/53
f 35/44/55 42/51/55 41/50/55 63/81/55
f 35/44/56 63/81/56 37/46/56
f 38/47/57 44/53/57 64/82/57
f 38/47/58 64/82/58 40/49/58
o hilt_low
v 1.840332 -0.221488 -5.127909
v 1.840332 -0.172812 -5.091618
v 1.840332 0.199447 -5.127876
v 1.840332 0.150640 -5.091618
v 1.840332 -0.221488 -5.614981
v 1.840332 -0.173527 -5.660541
v 1.840332 0.199447 -5.615094
v 1.840332 0.151365 -5.660541
v 0.000000 -0.459736 -6.069782
v 0.000000 0.459592 -6.069782
v 0.000000 -0.459306 -4.949502
v 0.000000 0.459132 -4.949502
v 3.184974 0.156492 -5.116635
v 3.184974 0.108706 -5.164461
v 3.184974 -0.108802 -5.164461
v 3.184974 -0.156492 -5.116560
v 3.184974 -0.156492 -4.879631
v 3.184974 -0.108010 -4.842856
v 3.184974 0.107908 -4.842856
v 3.184974 0.156492 -4.879605
v 3.975618 0.134045 -4.837248
v 3.975618 0.069343 -4.891467
v 3.975618 -0.069438 -4.891467
v 3.975618 -0.134030 -4.837175
v 3.975618 -0.134030 -4.659317
v 3.975618 -0.068185 -4.618334
v 3.975618 0.068082 -4.618334
v 3.975618 0.134045 -4.659295
v 4.470587 0.068094 -4.711569
v 4.454470 0.210372 -4.656028
v 4.547282 0.008169 -4.628377
v 4.526386 0.181822 -4.557599
v 4.526362 -0.181724 -4.557518
v 4.547282 -0.008327 -4.628377
v 4.454450 -0.210299 -4.655960
v 4.470587 -0.068238 -4.711569
v 4.498658 -0.003765 -4.463682
v 4.514047 -0.181723 -4.515805
v 4.409061 -0.067010 -4.499549
v 4.421414 -0.211425 -4.542115
v 4.421408 0.211499 -4.542095
v 4.409061 0.066849 -4.499549
v 4.514040 0.181822 -4.515781
v 4.498658 0.003586 -4.463682
v 0.385166 0.454004 -5.944884
v 0.385166 0.404547 -5.987110
v 0.385166 -0.448494 -5.144938
v 0.385166 -0.398682 -5.108718
v 0.385166 -0.399223 -5.987110
v 0.385166 -0.448494 -5.944784
v 0.385166 0.403968 -5.108718
v 0.385166 0.454004 -5.144898
v 0.883535 0.339782 -5.844456
v 0.883535 0.290780 -5.887166
v 0.883535 -0.339782 -5.206761
v 0.883535 -0.290395 -5.170694
v 0.883535 -0.290993 -5.887166
v 0.883535 -0.339782 -5.844322
v 0.883535 0.290139 -5.170694
v 0.883535 0.339782 -5.206707
v 1.446687 0.192543 -5.767604
v 1.446687 0.241046 -5.723869
v 1.446687 -0.219600 -5.165514
v 1.446687 -0.268597 -5.201571
v 1.446687 -0.220260 -5.767604
v 1.446687 -0.268597 -5.723699
v 1.446687 0.191856 -5.165514
v 1.446687 0.241046 -5.201522
v -1.840332 -0.221488 -5.127909
v -1.840332 -0.172812 -5.091618
v -1.840332 0.199447 -5.127876
v -1.840332 0.150640 -5.091618
v -1.840332 -0.221488 -5.614981
v -1.840332 -0.173527 -5.660541
v -1.840332 0.199447 -5.615094
v -1.840332 0.151365 -5.660541
v -3.184974 0.156492 -5.116635
v -3.184974 0.108706 -5.164461
v -3.184974 -0.108802 -5.164461
v -3.184974 -0.156492 -5.116560
v -3.184974 -0.156492 -4.879631
v -3.184974 -0.108010 -4.842856
v -3.184974 0.107908 -4.842856
v -3.184974 0.156492 -4.879605
v -3.975618 0.152395 -4.848974
v -3.975618 0.078837 -4.910613
v -3.975618 -0.078940 -4.910613
v -3.975618 -0.152372 -4.848891
v -3.975618 -0.152372 -4.646690
v -3.975618 -0.077514 -4.600097
v -3.975618 0.077403 -4.600097
v -3.975618 0.152395 -4.646664
v -4.470587 0.068094 -4.711569
v -4.454470 0.210372 -4.656028
v -4.547282 0.008169 -4.628377
v -4.526386 0.181822 -4.557599
v -4.526362 -0.181724 -4.557518
v -4.547282 -0.008327 -4.628377
v -4.454450 -0.210299 -4.655960
v -4.470587 -0.068238 -4.711569
v -4.498658 -0.003765 -4.463682
v -4.514047 -0.181723 -4.515805
v -4.409061 -0.067010 -4.499549
v -4.421414 -0.211425 -4.542115
v -4.421408 0.211499 -4.542095
v -4.409061 0.066849 -4.499549
v -4.514040 0.181822 -4.515781
v -4.498658 0.003586 -4.463682
v -0.385166 0.454004 -5.944884
v -0.385166 0.404547 -5.987110
v -0.385166 -0.448494 -5.144938
v -0.385166 -0.398682 -5.108718
v -0.385166 -0.399223 -5.987110
v -0.385166 -0.448494 -5.944784
v -0.385166 0.403968 -5.108718
v -0.385166 0.454004 -5.144898
v -0.883535 0.339782 -5.844456
v -0.883535 0.290780 -5.887166
v -0.883535 -0.339782 -5.206761
v -0.883535 -0.290395 -5.170694
v -0.883535 -0.290993 -5.887166
v -0.883535 -0.339782 -5.844322
v -0.883535 0.290139 -5.170694
v -0.883535 0.339782 -5.206707
v -1.446687 0.192543 -5.767604
v -1.446687 0.241046 -5.723869
v -1.446687 -0.219600 -5.165514
v -1.446687 -0.268597 -5.201571
v -1.446687 -0.220260 -5.767604
v -1.446687 -0.268597 -5.723699
v -1.446687 0.191856 -5.165514
v -1.446687 0.241046 -5.201522
v 0.018008 -0.582343 -6.020269
v -0.018008 -0.582343 -6.020269
v 0.000000 -0.579761 -6.034633
v -0.018234 0.582793 -6.020262
v 0.018234 0.582793 -6.020262
v 0.000000 0.579666 -6.034707
v -0.018008 -0.582343 -4.999902
v 0.018008 -0.582343 -4.999902
v 0.000000 -0.578809 -4.979109
v 0.018234 0.582793 -5.000053
v -0.018234 0.582793 -5.000053
v 0.000000 0.578718 -4.979095
vn 0.2099 -0.0000 -0.9777
vn 0.3461 -0.0000 -0.9382
vn -0.1819 -0.0000 0.9833
vn 0.3820 -0.0000 0.9242
vn 0.3264 -0.0000 -0.9452
vn -0.2732 -0.0000 0.9620
vn 0.2624 -0.0000 -0.9649
vn 0.1051 0.9945 -0.0000
vn -0.1845 -0.0000 0.9828
vn -0.2643 -0.0000 0.9644
vn 0.0284 -0.9996 -0.0000
vn 0.0284 0.9996 -0.0000
vn 0.3416 -0.0000 -0.9398
vn -0.1571 -0.9873 -0.0216
vn 0.2817 -0.9565 0.0752
vn 0.2815 0.9566 0.0752
vn 0.9591 -0.0000 0.2832
vn -0.3716 -0.0000 0.9284
vn 0.7352 -0.0000 -0.6778
vn 0.2234 0.9747 -0.0000
vn -0.1572 0.9873 -0.0216
vn 0.2131 -0.9770 -0.0000
vn 0.1966 -0.0000 -0.9805
vn -0.3312 0.9436 -0.0000
vn -0.2956 0.4203 -0.8579
vn 0.2077 -0.0000 -0.9782
vn 0.1254 -0.9921 -0.0000
vn 0.1727 0.9850 -0.0000
vn 0.1234 -0.0000 0.9924
vn 0.1188 -0.9929 -0.0000
vn 0.0319 0.9995 -0.0000
vn -0.0092 -0.0000 1.0000
vn 0.2631 0.6545 -0.7088
vn -0.0794 -0.5933 0.8010
vn -0.3425 -0.9395 -0.0000
vn -0.4376 0.3616 0.8233
vn -0.1277 0.5949 0.7936
vn 0.2761 0.6702 -0.6889
vn 0.2858 -0.6697 -0.6854
vn -0.1179 -0.5969 0.7936
vn 0.2738 -0.6474 -0.7113
vn -0.2059 -0.5503 0.8091
vn -0.2062 0.5494 0.8098
vn 0.2741 0.6462 -0.7123
vn 0.8047 0.2993 -0.5127
vn 0.8047 -0.2999 -0.5123
vn -0.1725 -0.2912 0.9410
vn -0.1729 0.2907 0.9411
vn 0.2753 -0.4681 -0.8397
vn 0.2756 0.4670 -0.8402
vn -0.2706 0.3685 0.8894
vn -0.2706 -0.3692 0.8891
vn 0.3312 0.9436 -0.0000
vn 0.4376 0.3616 0.8233
vn 0.2825 -0.6290 -0.7242
vn 0.2286 0.5710 0.7885
vn 0.2888 0.6254 -0.7249
vn 0.2228 -0.5741 0.7879
vn 0.2361 -0.6473 -0.7247
vn 0.0951 0.5863 0.8045
vn 0.2657 0.6396 -0.7214
vn 0.0670 -0.5899 0.8047
vn 0.2713 -0.6551 -0.7051
vn -0.0881 0.5912 0.8017
vn 0.0483 -0.9988 -0.0000
vn -0.2099 -0.0000 -0.9777
vn -0.3461 -0.0000 -0.9382
vn 0.1819 -0.0000 0.9833
vn -0.3820 -0.0000 0.9242
vn -0.3057 -0.0000 -0.9521
vn 0.2935 -0.0000 0.9560
vn -0.2624 -0.0000 -0.9649
vn -0.1051 0.9945 -0.0000
vn 0.1845 -0.0000 0.9828
vn 0.2260 -0.0000 0.9741
vn -0.0052 -1.0000 -0.0000
vn -0.0052 1.0000 -0.0000
vn -0.3731 -0.0000 -0.9278
vn 0.1204 -0.9926 -0.0161
vn -0.2817 -0.9565 0.0752
vn -0.2815 0.9566 0.0752
vn -0.9591 -0.0000 0.2832
vn 0.3716 -0.0000 0.9284
vn -0.7352 -0.0000 -0.6778
vn -0.2234 0.9747 -0.0000
vn 0.1205 0.9926 -0.0161
vn -0.2131 -0.9770 -0.0000
vn -0.1966 -0.0000 -0.9805
vn -0.4418 -0.3618 0.8209
vn -0.3013 -0.4212 -0.8555
vn -0.2077 -0.0000 -0.9782
vn -0.1254 -0.9921 -0.0000
vn -0.1727 0.9850 -0.0000
vn -0.1234 -0.0000 0.9924
vn -0.1188 -0.9929 -0.0000
vn -0.0319 0.9995 -0.0000
vn 0.0092 -0.0000 1.0000
vn -0.2631 0.6545 -0.7088
vn 0.0794 -0.5933 0.8010
vn 0.3425 -0.9395 -0.0000
vn 0.1277 0.5949 0.7936
vn -0.2761 0.6702 -0.6889
vn -0.2858 -0.6697 -0.6854
vn 0.1179 -0.5969 0.7936
vn -0.2507 -0.6496 -0.7177
vn 0.2306 -0.5449 0.8062
vn 0.2308 0.5439 0.8068
vn -0.2510 0.6484 -0.7188
vn -0.8047 0.2993 -0.5127
vn -0.8047 -0.2999 -0.5123
vn 0.1725 -0.2912 0.9410
vn 0.1729 0.2907 0.9411
vn -0.3093 -0.4725 -0.8253
vn -0.3095 0.4714 -0.8258
vn 0.2301 0.3769 0.8972
vn 0.2301 -0.3777 0.8969
vn 0.2956 0.4203 -0.8579
vn 0.4418 -0.3618 0.8209
vn -0.2825 -0.6290 -0.7242
vn -0.2286 0.5710 0.7885
vn -0.2888 0.6254 -0.7249
vn -0.2228 -0.5741 0.7879
vn -0.2361 -0.6473 -0.7247
vn -0.0951 0.5863 0.8045
vn -0.2657 0.6396 -0.7214
vn -0.0670 -0.5899 0.8047
vn -0.2713 -0.6551 -0.7051
vn 0.0881 0.5912 0.8017
vn -0.0483 -0.9988 -0.0000
vn -0.0000 -0.9842 -0.1770
vn -0.0000 0.9774 -0.2115
vn -0.0000 -0.9859 0.1676
vn -0.0000 0.9816 0.1908
vn -0.0000 -1.0000 -0.0000
vn -0.0000 1.0000 -0.0000
vn 0.3013 -0.4212 -0.8555
vt 0.818622 0.517981
vt 0.572617 0.764081
vt 0.818903 0.521562
vt 0.814886 0.886391
vt 0.818461 0.544250
vt 0.818800 0.540660
vt 0.808895 0.693695
vt 0.572607 0.795467
vt 0.807922 0.689844
vt 0.814876 0.917787
vt 0.808506 0.666501
vt 0.807667 0.670388
vt 0.694357 0.708496
vt 0.693770 0.653938
vt 0.704187 0.503760
vt 0.704545 0.557477
vt 0.901579 0.885692
vt 0.895115 0.667592
vt 0.894164 0.671564
vt 0.894376 0.684769
vt 0.895459 0.688707
vt 0.485867 0.763321
vt 0.899786 0.522205
vt 0.485872 0.748054
vt 0.900227 0.525795
vt 0.900134 0.538674
vt 0.901583 0.870418
vt 0.899638 0.542260
vt 0.952553 0.867703
vt 0.945796 0.668180
vt 0.944725 0.673156
vt 0.944858 0.681543
vt 0.434904 0.745302
vt 0.946096 0.686485
vt 0.434907 0.733841
vt 0.948551 0.524082
vt 0.949145 0.528614
vt 0.949079 0.536642
vt 0.952556 0.856236
vt 0.948412 0.541170
vt 0.975068 0.673039
vt 0.983803 0.856035
vt 0.976410 0.664178
vt 0.981329 0.676258
vt 0.988746 0.849658
vt 0.984184 0.665583
vt 0.398724 0.727233
vt 0.984653 0.687730
vt 0.981352 0.677197
vt 0.403663 0.733614
vt 0.976919 0.689446
vt 0.975241 0.680644
vt 0.991353 0.676718
vt 0.981335 0.532671
vt 0.399496 0.724539
vt 0.987411 0.687851
vt 0.981472 0.521711
vt 0.975678 0.528889
vt 0.405756 0.726268
vt 0.975800 0.519976
vt 0.981713 0.848681
vt 0.975595 0.545723
vt 0.975616 0.536796
vt 0.987973 0.846957
vt 0.986931 0.665343
vt 0.981294 0.544080
vt 0.991337 0.676276
vt 0.981331 0.533104
vt 0.719572 0.939010
vt 0.717914 0.652617
vt 0.717338 0.656517
vt 0.667612 0.765209
vt 0.730341 0.502255
vt 0.729725 0.505990
vt 0.718045 0.704979
vt 0.667595 0.816750
vt 0.718736 0.708875
vt 0.729341 0.555472
vt 0.719588 0.887459
vt 0.729904 0.559156
vt 0.752522 0.932548
vt 0.748925 0.658849
vt 0.748288 0.662745
vt 0.634740 0.769182
vt 0.760870 0.509528
vt 0.760552 0.513211
vt 0.748832 0.698117
vt 0.634727 0.810266
vt 0.749577 0.701997
vt 0.760160 0.548804
vt 0.752534 0.891452
vt 0.760376 0.552487
vt 0.783147 0.668242
vt 0.789367 0.924789
vt 0.783850 0.664355
vt 0.794860 0.518182
vt 0.598162 0.768836
vt 0.794812 0.514532
vt 0.783551 0.693071
vt 0.598152 0.802481
vt 0.784368 0.696932
vt 0.794573 0.543374
vt 0.789377 0.891129
vt 0.794447 0.547042
vt 0.589948 0.519511
vt 0.815294 0.764159
vt 0.589715 0.523098
vt 0.571822 0.886319
vt 0.590460 0.545769
vt 0.590073 0.542182
vt 0.579524 0.696163
vt 0.815284 0.795545
vt 0.580412 0.692291
vt 0.571813 0.917715
vt 0.579327 0.668966
vt 0.580249 0.672835
vt 0.485129 0.885569
vt 0.492494 0.671874
vt 0.493499 0.675840
vt 0.493575 0.689105
vt 0.492604 0.693081
vt 0.902043 0.763455
vt 0.508740 0.524782
vt 0.902048 0.748188
vt 0.508321 0.528381
vt 0.508592 0.541315
vt 0.485134 0.870295
vt 0.509162 0.544895
vt 0.434185 0.868306
vt 0.442341 0.672381
vt 0.443694 0.677974
vt 0.443720 0.687400
vt 0.952998 0.746223
vt 0.442410 0.693008
vt 0.953003 0.733193
vt 0.459742 0.526247
vt 0.459139 0.531387
vt 0.459350 0.540450
vt 0.434189 0.855269
vt 0.460177 0.545567
vt 0.413072 0.678989
vt 0.403106 0.855863
vt 0.411481 0.670183
vt 0.406875 0.682355
vt 0.398179 0.849474
vt 0.403783 0.671778
vt 0.989014 0.727414
vt 0.403766 0.693852
vt 0.406870 0.683293
vt 0.984083 0.733801
vt 0.411489 0.695439
vt 0.413054 0.686631
vt 0.396887 0.683015
vt 0.427379 0.536399
vt 0.988238 0.724721
vt 0.401023 0.694024
vt 0.427071 0.525437
vt 0.432988 0.532529
vt 0.981981 0.726457
vt 0.432711 0.523608
vt 0.405215 0.848515
vt 0.433271 0.549396
vt 0.433158 0.540457
vt 0.398959 0.846775
vt 0.401044 0.671598
vt 0.427554 0.547814
vt 0.396894 0.682573
vt 0.427389 0.536832
vt 0.667104 0.938995
vt 0.669602 0.653136
vt 0.670262 0.657023
vt 0.720298 0.765225
vt 0.678014 0.502605
vt 0.678680 0.506331
vt 0.670598 0.705490
vt 0.720281 0.816767
vt 0.669990 0.709400
vt 0.679725 0.555803
vt 0.667119 0.887444
vt 0.679212 0.559494
vt 0.634159 0.932513
vt 0.638733 0.660035
vt 0.639453 0.663916
vt 0.753167 0.769220
vt 0.647586 0.510284
vt 0.647953 0.513963
vt 0.639670 0.699292
vt 0.753153 0.810304
vt 0.639009 0.703187
vt 0.648820 0.549547
vt 0.634171 0.891417
vt 0.648653 0.553232
vt 0.604720 0.670162
vt 0.597318 0.924732
vt 0.603934 0.666291
vt 0.613714 0.519392
vt 0.789745 0.768897
vt 0.613713 0.515742
vt 0.604850 0.694993
vt 0.789734 0.802543
vt 0.604116 0.698870
vt 0.614338 0.544576
vt 0.597328 0.891072
vt 0.614512 0.548242
vt 0.692776 0.821623
vt 0.695752 0.716401
vt 0.693131 0.716429
vt 0.695097 0.821623
vt 0.694433 0.715575
vt 0.692377 0.646064
vt 0.692162 0.943859
vt 0.694993 0.646036
vt 0.694512 0.943860
vt 0.693694 0.646895
vt 0.702620 0.495958
vt 0.695118 0.755871
vt 0.705650 0.495938
vt 0.692797 0.755871
vt 0.704143 0.497149
vt 0.706071 0.565074
vt 0.694531 0.878118
vt 0.703121 0.565094
vt 0.692181 0.878117
vt 0.704588 0.563906
s 0
f 73/95/59 74/96/59 110/153/59 113/157/59
f 70/91/60 72/94/60 78/101/60 79/102/60
f 68/88/61 66/85/61 82/107/61 83/108/61
f 112/156/62 115/160/62 76/98/62 75/97/62
f 79/102/63 78/101/63 86/113/63 87/114/63
f 83/108/64 82/107/64 90/119/64 91/120/64
f 129/181/65 125/175/65 72/94/65 70/91/65
f 71/92/66 126/176/66 132/185/66 67/86/66
f 66/85/67 68/88/67 131/184/67 127/178/67
f 91/120/68 90/119/68 103/140/68 106/145/68
f 81/106/69 80/104/69 88/115/69 89/117/69
f 77/99/70 84/109/70 92/121/70 85/111/70
f 87/114/71 86/113/71 93/123/71 100/134/71
f 89/117/72 88/115/72 99/132/72 104/141/72
f 104/141/73 99/132/73 97/129/73 102/137/73
f 94/124/74 105/143/74 107/146/74 96/127/74
f 97/130/75 98/131/75 95/126/75 96/128/75 107/147/75 108/149/75 101/135/75 102/138/75
f 106/145/76 103/140/76 101/136/76 108/150/76
f 95/126/77 98/131/77 100/134/77 93/123/77
f 117/163/78 109/151/78 116/161/78 124/173/78
f 85/111/79 92/121/79 105/143/79 94/124/79
f 114/158/80 122/170/80 119/166/80 111/154/80
f 113/157/81 110/153/81 118/165/81 121/169/81
f 173/251/82 180/261/82 207/305/82 200/293/82
f 200/292/83 202/296/83 74/96/83 174/253/83 173/252/83
f 121/169/84 118/165/84 125/175/84 129/181/84
f 122/170/85 130/182/85 128/179/85 119/166/85
f 126/176/86 117/163/86 124/173/86 132/185/86
f 120/168/87 123/172/87 115/160/87 112/156/87
f 130/182/88 69/90/88 65/84/88 128/179/88
f 71/92/89 67/86/89 84/109/89 77/99/89
f 127/178/90 131/184/90 123/172/90 120/168/90
f 126/177/91 71/93/91 72/94/91 125/175/91
f 128/180/92 65/83/92 66/85/92 127/178/92
f 198/290/93 203/298/93 175/254/93 178/258/93
f 180/262/94 179/260/94 76/98/94 208/306/94 207/304/94
f 68/88/95 83/108/95 84/110/95 67/87/95
f 78/101/96 72/94/96 71/93/96 77/100/96
f 80/103/97 69/89/97 70/91/97 79/102/97
f 65/83/98 81/105/98 82/107/98 66/85/98
f 79/102/99 87/114/99 88/116/99 80/103/99
f 90/119/100 82/107/100 81/105/100 89/118/100
f 83/108/101 91/120/101 92/122/101 84/110/101
f 86/113/102 78/101/102 77/100/102 85/112/102
f 94/125/103 96/128/103 95/126/103 93/123/103
f 97/130/104 99/133/104 100/134/104 98/131/104
f 101/136/105 103/140/105 104/142/105 102/139/105
f 106/145/106 108/150/106 107/148/106 105/144/106
f 99/133/107 88/116/107 87/114/107 100/134/107
f 85/112/108 94/125/108 93/123/108 86/113/108
f 91/120/109 106/145/109 105/144/109 92/122/109
f 103/140/110 90/119/110 89/118/110 104/142/110
f 109/151/111 201/295/111 206/303/111 116/161/111
f 116/162/112 206/302/112 208/306/112 76/98/112 115/160/112
f 122/171/113 114/159/113 113/157/113 121/169/113
f 124/174/114 116/162/114 115/160/114 123/172/114
f 109/152/115 117/164/115 118/165/115 110/153/115
f 111/155/116 119/167/116 120/168/116 112/156/116
f 130/183/117 122/171/117 121/169/117 129/181/117
f 132/186/118 124/174/118 123/172/118 131/184/118
f 117/164/119 126/177/119 125/175/119 118/165/119
f 119/167/120 128/180/120 127/178/120 120/168/120
f 69/89/121 130/183/121 129/181/121 70/91/121
f 67/87/122 132/186/122 131/184/122 68/88/122
f 65/84/123 69/90/123 80/104/123 81/106/123
f 73/95/124 177/257/124 174/253/124 74/96/124
f 138/195/125 143/202/125 142/201/125 140/198/125
f 136/192/126 147/208/126 146/207/126 134/189/126
f 176/256/127 75/97/127 76/98/127 179/260/127
f 143/202/128 151/214/128 150/213/128 142/201/128
f 147/208/129 155/220/129 154/219/129 146/207/129
f 193/281/130 138/195/130 140/198/130 189/275/130
f 139/196/131 135/190/131 196/285/131 190/276/131
f 134/189/132 191/278/132 195/284/132 136/192/132
f 155/220/133 170/245/133 167/240/133 154/219/133
f 145/206/134 153/217/134 152/215/134 144/204/134
f 141/199/135 149/211/135 156/221/135 148/209/135
f 151/214/136 164/234/136 157/223/136 150/213/136
f 153/217/137 168/241/137 163/232/137 152/215/137
f 168/241/138 166/237/138 161/229/138 163/232/138
f 158/224/139 160/227/139 171/246/139 169/243/139
f 161/230/140 166/238/140 165/235/140 172/249/140 171/247/140 160/228/140 159/226/140 162/231/140
f 170/245/141 172/250/141 165/236/141 167/240/141
f 159/226/142 157/223/142 164/234/142 162/231/142
f 181/263/143 188/273/143 180/261/143 173/251/143
f 149/211/144 158/224/144 169/243/144 156/221/144
f 178/258/145 175/254/145 183/266/145 186/270/145
f 177/257/146 185/269/146 182/265/146 174/253/146
f 203/297/147 205/301/147 75/97/147 176/256/147 175/255/147
f 178/259/148 177/257/148 73/95/148 199/291/148 198/289/148
f 185/269/149 193/281/149 189/275/149 182/265/149
f 186/270/150 183/266/150 192/279/150 194/282/150
f 190/276/151 196/285/151 188/273/151 181/263/151
f 184/268/152 176/256/152 179/260/152 187/272/152
f 194/282/153 192/279/153 133/188/153 137/194/153
f 139/196/154 141/199/154 148/209/154 135/190/154
f 191/278/155 184/268/155 187/272/155 195/284/155
f 190/277/156 189/275/156 140/198/156 139/197/156
f 192/280/157 191/278/157 134/189/157 133/187/157
f 197/287/158 114/158/158 111/154/158 204/300/158
f 136/192/159 135/191/159 148/210/159 147/208/159
f 142/201/160 141/200/160 139/197/160 140/198/160
f 144/203/161 143/202/161 138/195/161 137/193/161
f 133/187/162 134/189/162 146/207/162 145/205/162
f 143/202/163 144/203/163 152/216/163 151/214/163
f 154/219/164 153/218/164 145/205/164 146/207/164
f 147/208/165 148/210/165 156/222/165 155/220/165
f 150/213/166 149/212/166 141/200/166 142/201/166
f 158/225/167 157/223/167 159/226/167 160/228/167
f 161/230/168 162/231/168 164/234/168 163/233/168
f 165/236/169 166/239/169 168/242/169 167/240/169
f 170/245/170 169/244/170 171/248/170 172/250/170
f 163/233/171 164/234/171 151/214/171 152/216/171
f 149/212/172 150/213/172 157/223/172 158/225/172
f 155/220/173 156/222/173 169/244/173 170/245/173
f 167/240/174 168/242/174 153/218/174 154/219/174
f 202/296/175 201/294/175 109/152/175 110/153/175 74/96/175
f 205/301/176 204/299/176 111/155/176 112/156/176 75/97/176
f 186/271/177 185/269/177 177/257/177 178/259/177
f 188/274/178 187/272/178 179/260/178 180/262/178
f 173/252/179 174/253/179 182/265/179 181/264/179
f 175/255/180 176/256/180 184/268/180 183/267/180
f 194/283/181 193/281/181 185/269/181 186/271/181
f 196/286/182 195/284/182 187/272/182 188/274/182
f 181/264/183 182/265/183 189/275/183 190/277/183
f 183/267/184 184/268/184 191/278/184 192/280/184
f 137/193/185 138/195/185 193/281/185 194/283/185
f 135/191/186 136/192/186 195/284/186 196/286/186
f 133/188/187 145/206/187 144/204/187 137/194/187
f 197/288/188 198/289/188 199/291/188
f 200/292/189 201/294/189 202/296/189
f 203/297/190 204/299/190 205/301/190
f 206/302/191 207/304/191 208/306/191
f 203/298/192 198/290/192 197/287/192 204/300/192
f 200/293/193 207/305/193 206/303/193 201/295/193
f 114/159/194 197/288/194 199/291/194 73/95/194 113/157/194
o handle_low
v -0.000000 0.328478 -10.675202
v 0.000000 0.296444 -5.287256
v 0.095519 0.322166 -10.675202
v 0.154597 0.290748 -5.287256
v 0.187368 0.303474 -10.675202
v 0.303252 0.273879 -5.287256
v 0.272016 0.273119 -10.675202
v 0.440254 0.246484 -5.287256
v 0.346210 0.232269 -10.675202
v 0.560337 0.209618 -5.287256
v 0.407100 0.182492 -10.675202
v 0.658887 0.164696 -5.287256
v 0.452345 0.125703 -10.675202
v 0.732116 0.113444 -5.287256
v 0.480207 0.064083 -10.675202
v 0.777210 0.057833 -5.287256
v 0.489615 0.000000 -10.675202
v 0.792437 -0.000000 -5.287256
v 0.480207 -0.064083 -10.675202
v 0.777210 -0.057834 -5.287256
v 0.452345 -0.125703 -10.675202
v 0.732116 -0.113444 -5.287256
v 0.407100 -0.182492 -10.675202
v 0.658887 -0.164696 -5.287256
v 0.346210 -0.232268 -10.675202
v 0.560337 -0.209618 -5.287256
v 0.272016 -0.273119 -10.675202
v 0.440254 -0.246485 -5.287256
v 0.187368 -0.303474 -10.675202
v 0.303252 -0.273879 -5.287256
v 0.095519 -0.322166 -10.675202
v 0.154597 -0.290748 -5.287256
v -0.000000 -0.328477 -10.675202
v 0.000000 -0.296445 -5.287256
v -0.095519 -0.322166 -10.675202
v -0.154597 -0.290748 -5.287256
v -0.187368 -0.303474 -10.675202
v -0.303252 -0.273879 -5.287256
v -0.272016 -0.273119 -10.675202
v -0.440254 -0.246485 -5.287256
v -0.346210 -0.232268 -10.675202
v -0.560337 -0.209618 -5.287256
v -0.407100 -0.182492 -10.675202
v -0.658887 -0.164696 -5.287256
v -0.452345 -0.125703 -10.675202
v -0.732116 -0.113444 -5.287256
v -0.480207 -0.064083 -10.675202
v -0.777210 -0.057834 -5.287256
v -0.489615 0.000000 -10.675202
v -0.792437 -0.000000 -5.287256
v -0.480207 0.064083 -10.675202
v -0.777210 0.057833 -5.287256
v -0.452345 0.125703 -10.675202
v -0.732116 0.113444 -5.287256
v -0.407100 0.182492 -10.675202
v -0.658887 0.164696 -5.287256
v -0.346210 0.232269 -10.675202
v -0.560337 0.209618 -5.287256
v -0.272016 0.273119 -10.675202
v -0.440254 0.246484 -5.287256
v -0.187368 0.303474 -10.675202
v -0.303252 0.273879 -5.287256
v -0.095519 0.322166 -10.675202
v -0.154597 0.290748 -5.287256
v 0.000000 0.389239 -6.946098
v 0.151250 0.381759 -6.946098
v 0.296688 0.359610 -6.946098
v 0.430724 0.323640 -6.946097
v 0.548207 0.275233 -6.946098
v 0.644624 0.216249 -6.946098
v 0.716267 0.148955 -6.946097
v 0.760386 0.075937 -6.946097
v 0.775282 -0.000000 -6.946098
v 0.760386 -0.075937 -6.946097
v 0.716267 -0.148955 -6.946097
v 0.644624 -0.216249 -6.946098
v 0.548207 -0.275233 -6.946098
v 0.430724 -0.323640 -6.946097
v 0.296688 -0.359610 -6.946098
v 0.151250 -0.381760 -6.946098
v 0.000000 -0.389239 -6.946098
v -0.151250 -0.381760 -6.946098
v -0.296688 -0.359610 -6.946098
v -0.430724 -0.323640 -6.946097
v -0.548207 -0.275233 -6.946098
v -0.644624 -0.216249 -6.946098
v -0.716267 -0.148955 -6.946097
v -0.760386 -0.075937 -6.946097
v -0.775282 -0.000000 -6.946098
v -0.760386 0.075937 -6.946097
v -0.716267 0.148955 -6.946097
v -0.644624 0.216249 -6.946098
v -0.548207 0.275233 -6.946098
v -0.430724 0.323640 -6.946097
v -0.296688 0.359610 -6.946098
v -0.151250 0.381759 -6.946098
v 0.118834 0.400812 -9.671155
v 0.233101 0.377556 -9.671155
v 0.338410 0.339792 -9.671155
v 0.430715 0.288969 -9.671155
v 0.506467 0.227042 -9.671155
v 0.562756 0.156389 -9.671155
v 0.597419 0.079726 -9.671155
v 0.609123 0.000000 -9.671155
v 0.597419 -0.079726 -9.671155
v 0.562756 -0.156389 -9.671155
v 0.506467 -0.227041 -9.671155
v 0.430715 -0.288969 -9.671155
v 0.338410 -0.339792 -9.671155
v 0.233101 -0.377556 -9.671155
v 0.118834 -0.400811 -9.671155
v 0.000000 -0.408664 -9.671155
v -0.118834 -0.400811 -9.671155
v -0.233101 -0.377556 -9.671155
v -0.338410 -0.339792 -9.671155
v -0.430715 -0.288969 -9.671155
v -0.506467 -0.227041 -9.671155
v -0.562756 -0.156389 -9.671155
v -0.597419 -0.079726 -9.671155
v -0.609123 0.000000 -9.671155
v -0.597419 0.079726 -9.671155
v -0.562756 0.156389 -9.671155
v -0.506467 0.227042 -9.671155
v -0.430715 0.288969 -9.671155
v -0.338410 0.339792 -9.671155
v -0.233101 0.377556 -9.671155
v -0.118834 0.400812 -9.671155
v 0.000000 0.408664 -9.671155
vn 0.0430 0.9975 0.0552
vn 0.1313 0.9900 0.0523
vn 0.2274 0.9727 0.0467
vn 0.3376 0.9405 0.0383
vn 0.4701 0.8822 0.0274
vn 0.6332 0.7738 0.0146
vn 0.8217 0.5699 0.0011
vn 0.9755 0.2197 -0.0088
vn 0.9755 -0.2197 -0.0088
vn 0.8217 -0.5699 0.0011
vn 0.6332 -0.7738 0.0146
vn 0.4701 -0.8822 0.0274
vn 0.3376 -0.9405 0.0383
vn 0.2274 -0.9727 0.0467
vn 0.1313 -0.9900 0.0523
vn 0.0430 -0.9975 0.0552
vn -0.0430 -0.9975 0.0552
vn -0.1313 -0.9900 0.0523
vn -0.2274 -0.9727 0.0467
vn -0.3376 -0.9405 0.0383
vn -0.4701 -0.8822 0.0274
vn -0.6332 -0.7738 0.0146
vn -0.8217 -0.5699 0.0011
vn -0.9755 -0.2197 -0.0088
vn -0.9755 0.2197 -0.0088
vn -0.8217 0.5699 0.0011
vn -0.6332 0.7738 0.0146
vn -0.4701 0.8822 0.0274
vn -0.3376 0.9405 0.0383
vn -0.2274 0.9727 0.0467
vn -0.1313 0.9900 0.0523
vn -0.0430 0.9975 0.0552
vn -0.0567 0.9984 0.0067
vn -0.1722 0.9851 0.0037
vn -0.2944 0.9557 -0.0024
vn -0.4276 0.9039 -0.0115
vn -0.5746 0.8181 -0.0233
vn -0.7327 0.6795 -0.0369
vn -0.8838 0.4652 -0.0504
vn -0.9840 0.1681 -0.0593
vn -0.9840 -0.1681 -0.0593
vn -0.8838 -0.4652 -0.0504
vn -0.7327 -0.6795 -0.0369
vn -0.5746 -0.8181 -0.0233
vn -0.4276 -0.9039 -0.0115
vn -0.2944 -0.9557 -0.0024
vn -0.1722 -0.9851 0.0037
vn -0.0567 -0.9984 0.0067
vn 0.0567 -0.9984 0.0067
vn 0.1722 -0.9851 0.0037
vn 0.2944 -0.9557 -0.0024
vn 0.4276 -0.9039 -0.0115
vn 0.5746 -0.8181 -0.0233
vn 0.7327 -0.6795 -0.0369
vn 0.8838 -0.4652 -0.0504
vn 0.9840 -0.1681 -0.0593
vn 0.9840 0.1681 -0.0593
vn 0.8838 0.4652 -0.0504
vn 0.7327 0.6795 -0.0369
vn 0.5746 0.8181 -0.0233
vn 0.4276 0.9039 -0.0115
vn 0.2944 0.9557 -0.0024
vn 0.1722 0.9851 0.0037
vn 0.0567 0.9984 0.0067
vn 0.0657 0.9947 -0.0794
vn 0.1988 0.9767 -0.0811
vn 0.3363 0.9379 -0.0845
vn 0.4804 0.8725 -0.0897
vn 0.6300 0.7706 -0.0965
vn 0.7778 0.6197 -0.1045
vn 0.9054 0.4094 -0.1121
vn 0.9826 0.1442 -0.1170
vn 0.9826 -0.1442 -0.1170
vn 0.9054 -0.4094 -0.1121
vn 0.7778 -0.6197 -0.1045
vn 0.6300 -0.7706 -0.0965
vn 0.4804 -0.8725 -0.0897
vn 0.3363 -0.9379 -0.0845
vn 0.1988 -0.9767 -0.0811
vn 0.0657 -0.9947 -0.0794
vn -0.0657 -0.9947 -0.0794
vn -0.1988 -0.9767 -0.0811
vn -0.3363 -0.9379 -0.0845
vn -0.4804 -0.8725 -0.0897
vn -0.6300 -0.7706 -0.0965
vn -0.7778 -0.6197 -0.1045
vn -0.9054 -0.4094 -0.1121
vn -0.9826 -0.1442 -0.1170
vn -0.9826 0.1442 -0.1170
vn -0.9054 0.4094 -0.1121
vn -0.7778 0.6197 -0.1045
vn -0.6300 0.7706 -0.0965
vn -0.4804 0.8725 -0.0897
vn -0.3363 0.9379 -0.0845
vn -0.1988 0.9767 -0.0811
vn -0.0657 0.9947 -0.0794
vt 0.928702 0.014014
vt 0.928702 0.370835
vt 0.922254 0.013984
vt 0.918336 0.370846
vt 0.915942 0.013907
vt 0.908313 0.370885
vt 0.909889 0.013779
vt 0.898957 0.370953
vt 0.904191 0.013593
vt 0.890549 0.371046
vt 0.898904 0.013341
vt 0.883301 0.371158
vt 0.894028 0.013012
vt 0.877320 0.371277
vt 0.889494 0.012587
vt 0.872526 0.371386
vt 0.885162 0.012043
vt 0.786811 0.013928
vt 0.868531 0.371469
vt 0.803488 0.374326
vt 0.782468 0.014473
vt 0.799482 0.374242
vt 0.777922 0.014899
vt 0.794676 0.374134
vt 0.773032 0.015229
vt 0.788678 0.374015
vt 0.767731 0.015482
vt 0.781411 0.373902
vt 0.762018 0.015668
vt 0.772980 0.373809
vt 0.755948 0.015797
vt 0.763599 0.373741
vt 0.749619 0.015874
vt 0.753549 0.373701
vt 0.743154 0.015904
vt 0.743155 0.373690
vt 0.736690 0.015874
vt 0.732761 0.373701
vt 0.730361 0.015797
vt 0.722711 0.373741
vt 0.724291 0.015668
vt 0.713330 0.373809
vt 0.718578 0.015482
vt 0.704899 0.373902
vt 0.713276 0.015230
vt 0.697632 0.374015
vt 0.708387 0.014899
vt 0.691634 0.374134
vt 0.703841 0.014473
vt 0.686827 0.374242
vt 0.699497 0.013928
vt 0.972241 0.012043
vt 0.682822 0.374326
vt 0.988872 0.371469
vt 0.967909 0.012587
vt 0.984877 0.371386
vt 0.963375 0.013012
vt 0.980083 0.371277
vt 0.958499 0.013341
vt 0.974102 0.371158
vt 0.953212 0.013593
vt 0.966855 0.371046
vt 0.947514 0.013779
vt 0.958446 0.370953
vt 0.941461 0.013907
vt 0.949090 0.370885
vt 0.935149 0.013984
vt 0.939068 0.370846
vt 0.928702 0.260383
vt 0.918691 0.260397
vt 0.908963 0.260435
vt 0.899779 0.260492
vt 0.891363 0.260560
vt 0.883866 0.260627
vt 0.877337 0.260677
vt 0.871659 0.260690
vt 0.805520 0.263203
vt 0.866505 0.260646
vt 0.800351 0.263247
vt 0.794658 0.263234
vt 0.788111 0.263184
vt 0.780594 0.263117
vt 0.772155 0.263049
vt 0.762947 0.262992
vt 0.753192 0.262954
vt 0.743155 0.262940
vt 0.733117 0.262954
vt 0.723363 0.262992
vt 0.714154 0.263049
vt 0.705715 0.263117
vt 0.698198 0.263184
vt 0.691651 0.263234
vt 0.685958 0.263248
vt 0.990898 0.260646
vt 0.680790 0.263203
vt 0.985744 0.260690
vt 0.980066 0.260677
vt 0.973537 0.260627
vt 0.966040 0.260560
vt 0.957624 0.260492
vt 0.948440 0.260435
vt 0.938712 0.260397
vt 0.920893 0.080878
vt 0.913242 0.080834
vt 0.905890 0.080753
vt 0.898951 0.080629
vt 0.892490 0.080450
vt 0.886507 0.080203
vt 0.880918 0.079866
vt 0.875549 0.079416
vt 0.796451 0.081483
vt 0.791068 0.081935
vt 0.785463 0.082272
vt 0.779464 0.082520
vt 0.772985 0.082699
vt 0.766027 0.082824
vt 0.758656 0.082905
vt 0.750984 0.082949
vt 0.743155 0.082962
vt 0.735325 0.082949
vt 0.727653 0.082905
vt 0.720282 0.082824
vt 0.713324 0.082699
vt 0.706845 0.082520
vt 0.700846 0.082272
vt 0.695242 0.081935
vt 0.689858 0.081483
vt 0.981854 0.079416
vt 0.976485 0.079866
vt 0.970896 0.080203
vt 0.964913 0.080450
vt 0.958452 0.080629
vt 0.951513 0.080753
vt 0.944161 0.080834
vt 0.936510 0.080878
vt 0.928702 0.080891
s 0
f 273/375/195 210/308/195 212/310/195 274/376/195
f 274/376/196 212/310/196 214/312/196 275/377/196
f 275/377/197 214/312/197 216/314/197 276/378/197
f 276/378/198 216/314/198 218/316/198 277/379/198
f 277/379/199 218/316/199 220/318/199 278/380/199
f 278/380/200 220/318/200 222/320/200 279/381/200
f 279/381/201 222/320/201 224/322/201 280/382/201
f 280/382/202 224/322/202 226/325/202 281/384/202
f 281/383/203 226/326/203 228/328/203 282/385/203
f 282/385/204 228/328/204 230/330/204 283/386/204
f 283/386/205 230/330/205 232/332/205 284/387/205
f 284/387/206 232/332/206 234/334/206 285/388/206
f 285/388/207 234/334/207 236/336/207 286/389/207
f 286/389/208 236/336/208 238/338/208 287/390/208
f 287/390/209 238/338/209 240/340/209 288/391/209
f 288/391/210 240/340/210 242/342/210 289/392/210
f 289/392/211 242/342/211 244/344/211 290/393/211
f 290/393/212 244/344/212 246/346/212 291/394/212
f 291/394/213 246/346/213 248/348/213 292/395/213
f 292/395/214 248/348/214 250/350/214 293/396/214
f 293/396/215 250/350/215 252/352/215 294/397/215
f 294/397/216 252/352/216 254/354/216 295/398/216
f 295/398/217 254/354/217 256/356/217 296/399/217
f 296/399/218 256/356/218 258/359/218 297/401/218
f 297/400/219 258/360/219 260/362/219 298/402/219
f 298/402/220 260/362/220 262/364/220 299/403/220
f 299/403/221 262/364/221 264/366/221 300/404/221
f 300/404/222 264/366/222 266/368/222 301/405/222
f 301/405/223 266/368/223 268/370/223 302/406/223
f 302/406/224 268/370/224 270/372/224 303/407/224
f 303/407/225 270/372/225 272/374/225 304/408/225
f 304/408/226 272/374/226 210/308/226 273/375/226
f 335/441/227 304/408/227 273/375/227 336/442/227
f 334/440/228 303/407/228 304/408/228 335/441/228
f 333/439/229 302/406/229 303/407/229 334/440/229
f 332/438/230 301/405/230 302/406/230 333/439/230
f 331/437/231 300/404/231 301/405/231 332/438/231
f 330/436/232 299/403/232 300/404/232 331/437/232
f 329/435/233 298/402/233 299/403/233 330/436/233
f 328/434/234 297/400/234 298/402/234 329/435/234
f 327/432/235 296/399/235 297/401/235 328/433/235
f 326/431/236 295/398/236 296/399/236 327/432/236
f 325/430/237 294/397/237 295/398/237 326/431/237
f 324/429/238 293/396/238 294/397/238 325/430/238
f 323/428/239 292/395/239 293/396/239 324/429/239
f 322/427/240 291/394/240 292/395/240 323/428/240
f 321/426/241 290/393/241 291/394/241 322/427/241
f 320/425/242 289/392/242 290/393/242 321/426/242
f 319/424/243 288/391/243 289/392/243 320/425/243
f 318/423/244 287/390/244 288/391/244 319/424/244
f 317/422/245 286/389/245 287/390/245 318/423/245
f 316/421/246 285/388/246 286/389/246 317/422/246
f 315/420/247 284/387/247 285/388/247 316/421/247
f 314/419/248 283/386/248 284/387/248 315/420/248
f 313/418/249 282/385/249 283/386/249 314/419/249
f 312/417/250 281/383/250 282/385/250 313/418/250
f 311/415/251 280/382/251 281/384/251 312/416/251
f 310/414/252 279/381/252 280/382/252 311/415/252
f 309/413/253 278/380/253 279/381/253 310/414/253
f 308/412/254 277/379/254 278/380/254 309/413/254
f 307/411/255 276/378/255 277/379/255 308/412/255
f 306/410/256 275/377/256 276/378/256 307/411/256
f 305/409/257 274/376/257 275/377/257 306/410/257
f 336/442/258 273/375/258 274/376/258 305/409/258
f 209/307/259 336/442/259 305/409/259 211/309/259
f 211/309/260 305/409/260 306/410/260 213/311/260
f 213/311/261 306/410/261 307/411/261 215/313/261
f 215/313/262 307/411/262 308/412/262 217/315/262
f 217/315/263 308/412/263 309/413/263 219/317/263
f 219/317/264 309/413/264 310/414/264 221/319/264
f 221/319/265 310/414/265 311/415/265 223/321/265
f 223/321/266 311/415/266 312/416/266 225/323/266
f 225/324/267 312/417/267 313/418/267 227/327/267
f 227/327/268 313/418/268 314/419/268 229/329/268
f 229/329/269 314/419/269 315/420/269 231/331/269
f 231/331/270 315/420/270 316/421/270 233/333/270
f 233/333/271 316/421/271 317/422/271 235/335/271
f 235/335/272 317/422/272 318/423/272 237/337/272
f 237/337/273 318/423/273 319/424/273 239/339/273
f 239/339/274 319/424/274 320/425/274 241/341/274
f 241/341/275 320/425/275 321/426/275 243/343/275
f 243/343/276 321/426/276 322/427/276 245/345/276
f 245/345/277 322/427/277 323/428/277 247/347/277
f 247/347/278 323/428/278 324/429/278 249/349/278
f 249/349/279 324/429/279 325/430/279 251/351/279
f 251/351/280 325/430/280 326/431/280 253/353/280
f 253/353/281 326/431/281 327/432/281 255/355/281
f 255/355/282 327/432/282 328/433/282 257/357/282
f 257/358/283 328/434/283 329/435/283 259/361/283
f 259/361/284 329/435/284 330/436/284 261/363/284
f 261/363/285 330/436/285 331/437/285 263/365/285
f 263/365/286 331/437/286 332/438/286 265/367/286
f 265/367/287 332/438/287 333/439/287 267/369/287
f 267/369/288 333/439/288 334/440/288 269/371/288
f 269/371/289 334/440/289 335/441/289 271/373/289
f 271/373/290 335/441/290 336/442/290 209/307/290
o pommel_low
v -0.083401 0.502286 -11.786352
v -0.083401 -0.502286 -11.786352
v -0.163598 0.502286 -11.762025
v -0.163598 -0.502286 -11.762025
v -0.237507 0.502286 -11.722520
v -0.237507 -0.502286 -11.722520
v -0.302289 0.502286 -11.669354
v -0.302289 -0.502286 -11.669354
v -0.355454 0.502286 -11.604572
v -0.355454 -0.502286 -11.604572
v -0.394959 0.502286 -11.530663
v -0.394959 -0.502286 -11.530663
v -0.419286 0.502286 -11.450467
v -0.419286 -0.502286 -11.450467
v -0.427501 0.502286 -11.367065
v -0.427501 -0.502286 -11.367065
v -0.419286 0.502286 -11.283665
v -0.419286 -0.502286 -11.283665
v -0.394959 0.502286 -11.203468
v -0.394959 -0.502286 -11.203468
v -0.355454 0.502286 -11.129559
v -0.355454 -0.502286 -11.129560
v -0.302289 0.502286 -11.064777
v -0.302289 -0.502286 -11.064777
v -0.237507 0.502286 -11.011612
v -0.237507 -0.502286 -11.011612
v -0.163598 0.502286 -10.972107
v -0.163598 -0.502286 -10.972107
v -0.083401 0.502286 -10.947780
v -0.083401 -0.502286 -10.947780
v -0.000000 0.502286 -10.939565
v -0.000000 -0.502286 -10.939565
v 0.083401 0.502286 -10.947780
v 0.083401 -0.502286 -10.947780
v 0.163598 0.502286 -10.972107
v 0.163598 -0.502286 -10.972107
v 0.237507 0.502286 -11.011612
v 0.237507 -0.502286 -11.011612
v 0.302289 0.502286 -11.064777
v 0.302289 -0.502286 -11.064777
v 0.355454 0.502286 -11.129560
v 0.355454 -0.502286 -11.129559
v 0.394959 0.502286 -11.203468
v 0.394959 -0.502286 -11.203468
v 0.419286 0.502286 -11.283665
v 0.419286 -0.502286 -11.283665
v 0.427501 0.502286 -11.367065
v 0.427501 -0.502286 -11.367065
v 0.419286 0.502286 -11.450467
v 0.419286 -0.502286 -11.450467
v 0.394959 0.502286 -11.530663
v 0.394959 -0.502286 -11.530663
v 0.355454 0.502286 -11.604572
v 0.355454 -0.502286 -11.604572
v 0.302289 0.502286 -11.669354
v 0.302289 -0.502286 -11.669354
v 0.237507 0.502286 -11.722520
v 0.237507 -0.502286 -11.722520
v 0.163598 0.502286 -11.762025
v 0.163598 -0.502286 -11.762025
v 0.083401 0.502286 -11.786352
v -0.000000 0.502286 -11.794566
v -0.000000 -0.502286 -11.794566
v 0.083401 -0.502286 -11.786352
v 0.000000 0.230732 -12.243587
v 0.171001 0.223639 -12.226746
v 0.335430 0.196247 -12.176867
v 0.486969 0.161949 -12.095867
v 0.619794 0.142906 -11.986860
v 0.728801 0.128397 -11.854035
v 0.809800 0.115490 -11.702497
v 0.859679 0.109803 -11.538067
v 0.876521 0.109803 -11.367066
v 0.859679 0.109803 -11.196066
v 0.809800 0.115490 -11.031636
v 0.728801 0.128397 -10.880097
v 0.619794 0.142906 -10.747272
v 0.486969 0.161949 -10.638266
v 0.335430 0.196247 -10.557266
v 0.171001 0.223639 -10.507387
v 0.000000 0.230732 -10.490545
v -0.171001 0.218226 -10.507387
v -0.335430 0.191162 -10.557266
v -0.486969 0.159950 -10.638266
v -0.619794 0.137151 -10.747272
v -0.728801 0.132692 -10.880097
v -0.809800 0.121951 -11.031636
v -0.859679 0.115693 -11.196066
v -0.876521 0.115693 -11.367066
v -0.859679 0.115693 -11.538067
v -0.809800 0.121951 -11.702497
v -0.728801 0.132692 -11.854035
v -0.619794 0.137151 -11.986860
v -0.486969 0.159950 -12.095867
v -0.335430 0.191162 -12.176867
v -0.171001 0.218226 -12.226746
v 0.171001 -0.222455 -12.226746
v 0.335430 -0.195062 -12.176867
v 0.486969 -0.160765 -12.095867
v 0.619794 -0.141722 -11.986860
v 0.728801 -0.127213 -11.854035
v 0.809800 -0.114306 -11.702497
v 0.859679 -0.108619 -11.538067
v 0.876521 -0.108619 -11.367066
v 0.859679 -0.108619 -11.196066
v 0.809800 -0.114306 -11.031636
v 0.728801 -0.127213 -10.880097
v 0.619794 -0.141722 -10.747272
v 0.486969 -0.160765 -10.638266
v 0.335430 -0.195062 -10.557266
v 0.171001 -0.222455 -10.507387
v 0.000000 -0.232329 -10.490545
v -0.171001 -0.217041 -10.507387
v -0.335430 -0.189978 -10.557266
v -0.486969 -0.158766 -10.638266
v -0.619794 -0.135967 -10.747272
v -0.728801 -0.131508 -10.880097
v -0.809800 -0.120767 -11.031636
v -0.859679 -0.114509 -11.196066
v -0.876521 -0.114509 -11.367066
v -0.859679 -0.114509 -11.538067
v -0.809800 -0.120767 -11.702497
v -0.728801 -0.131508 -11.854035
v -0.619794 -0.135967 -11.986860
v -0.486969 -0.158766 -12.095867
v -0.335430 -0.189978 -12.176867
v -0.171001 -0.217041 -12.226746
v 0.000000 -0.232329 -12.243587
v -0.000000 -0.532544 -11.931115
v -0.000000 0.532544 -11.931115
v 0.110040 -0.532544 -11.920277
v 0.110040 0.532544 -11.920277
v 0.215852 -0.532544 -11.888180
v 0.215852 0.532544 -11.888180
v 0.313369 -0.532544 -11.836056
v 0.313369 0.532544 -11.836056
v 0.398843 -0.532544 -11.765909
v 0.398843 0.532544 -11.765909
v 0.468989 -0.532544 -11.680435
v 0.468989 0.532544 -11.680435
v 0.521113 -0.532544 -11.582919
v 0.521113 0.532544 -11.582919
v 0.553211 -0.532544 -11.477107
v 0.553211 0.532544 -11.477107
v 0.564049 -0.532544 -11.367066
v 0.564049 0.532544 -11.367066
v 0.553211 -0.532544 -11.257026
v 0.553211 0.532544 -11.257026
v 0.521113 -0.532544 -11.151214
v 0.521113 0.532544 -11.151214
v 0.468989 -0.532544 -11.053698
v 0.468989 0.532544 -11.053698
v 0.398843 -0.532544 -10.968224
v 0.398843 0.532544 -10.968224
v 0.313369 -0.532544 -10.898077
v 0.313369 0.532544 -10.898077
v 0.215852 -0.532544 -10.845953
v 0.215852 0.532544 -10.845953
v 0.110040 -0.532544 -10.813856
v 0.110040 0.532544 -10.813856
v -0.000000 -0.532544 -10.803018
v -0.000000 0.532544 -10.803018
v -0.110040 -0.532544 -10.813856
v -0.110040 0.532544 -10.813856
v -0.215852 -0.532544 -10.845953
v -0.215852 0.532544 -10.845953
v -0.313369 -0.532544 -10.898077
v -0.313369 0.532544 -10.898077
v -0.398843 -0.532544 -10.968224
v -0.398843 0.532544 -10.968224
v -0.468989 -0.532544 -11.053698
v -0.468989 0.532544 -11.053698
v -0.521113 -0.532544 -11.151214
v -0.521113 0.532544 -11.151214
v -0.553211 -0.532544 -11.257026
v -0.553211 0.532544 -11.257026
v -0.564049 -0.532544 -11.367066
v -0.564049 0.532544 -11.367066
v -0.553211 -0.532544 -11.477107
v -0.553211 0.532544 -11.477107
v -0.521113 -0.532544 -11.582919
v -0.521113 0.532544 -11.582919
v -0.468989 -0.532544 -11.680435
v -0.468989 0.532544 -11.680435
v -0.398843 -0.532544 -11.765909
v -0.398843 0.532544 -11.765909
v -0.313369 -0.532544 -11.836056
v -0.313369 0.532544 -11.836056
v -0.215852 -0.532544 -11.888180
v -0.215852 0.532544 -11.888180
v -0.110040 -0.532544 -11.920277
v -0.110040 0.532544 -11.920277
v -0.000000 -0.488795 -12.146307
v 0.000000 -0.355825 -12.243587
v 0.000000 0.355825 -12.243587
v -0.000000 0.488795 -12.146307
v 0.171001 -0.355825 -12.226746
v 0.152022 -0.488795 -12.131334
v 0.152022 0.488795 -12.131334
v 0.171001 0.355825 -12.226746
v 0.335430 -0.355825 -12.176867
v 0.298203 -0.488795 -12.086991
v 0.298203 0.488795 -12.086991
v 0.335430 0.355825 -12.176867
v 0.486969 -0.355825 -12.095867
v 0.432923 -0.488795 -12.014981
v 0.432923 0.488795 -12.014981
v 0.486969 0.355825 -12.095867
v 0.619794 -0.355825 -11.986860
v 0.551007 -0.488795 -11.918073
v 0.551007 0.488795 -11.918073
v 0.619794 0.355825 -11.986860
v 0.728801 -0.355825 -11.854035
v 0.647915 -0.488795 -11.799990
v 0.647915 0.488795 -11.799990
v 0.728801 0.355825 -11.854035
v 0.809800 -0.355825 -11.702497
v 0.719925 -0.488795 -11.665269
v 0.719925 0.488795 -11.665269
v 0.809800 0.355825 -11.702497
v 0.859679 -0.355825 -11.538067
v 0.764268 -0.488795 -11.519089
v 0.764268 0.488795 -11.519089
v 0.859679 0.355825 -11.538067
v 0.876521 -0.355825 -11.367066
v 0.779241 -0.488795 -11.367066
v 0.779241 0.488795 -11.367066
v 0.876521 0.355825 -11.367066
v 0.859679 -0.355825 -11.196066
v 0.764268 -0.488795 -11.215044
v 0.764268 0.488795 -11.215044
v 0.859679 0.355825 -11.196066
v 0.809800 -0.355825 -11.031636
v 0.719925 -0.488795 -11.068864
v 0.719925 0.488795 -11.068864
v 0.809800 0.355825 -11.031636
v 0.728801 -0.355825 -10.880097
v 0.647915 -0.488795 -10.934143
v 0.647915 0.488795 -10.934143
v 0.728801 0.355825 -10.880097
v 0.619794 -0.355825 -10.747272
v 0.551007 -0.488795 -10.816060
v 0.551007 0.488795 -10.816060
v 0.619794 0.355825 -10.747272
v 0.486969 -0.355825 -10.638266
v 0.432923 -0.488795 -10.719151
v 0.432923 0.488795 -10.719151
v 0.486969 0.355825 -10.638266
v 0.335430 -0.355825 -10.557266
v 0.298203 -0.488795 -10.647141
v 0.298203 0.488795 -10.647141
v 0.335430 0.355825 -10.557266
v 0.171001 -0.355825 -10.507387
v 0.152022 -0.488795 -10.602798
v 0.152022 0.488795 -10.602798
v 0.171001 0.355825 -10.507387
v 0.000000 -0.355825 -10.490545
v -0.000000 -0.488795 -10.587826
v -0.000000 0.488795 -10.587826
v 0.000000 0.355825 -10.490545
v -0.171001 -0.355825 -10.507387
v -0.152022 -0.488795 -10.602798
v -0.152022 0.488795 -10.602798
v -0.171001 0.355825 -10.507387
v -0.335430 -0.355825 -10.557266
v -0.298203 -0.488795 -10.647141
v -0.298203 0.488795 -10.647141
v -0.335430 0.355825 -10.557266
v -0.486969 -0.355825 -10.638266
v -0.432923 -0.488795 -10.719151
v -0.432923 0.488795 -10.719151
v -0.486969 0.355825 -10.638266
v -0.619794 -0.355825 -10.747272
v -0.551007 -0.488795 -10.816060
v -0.551007 0.488795 -10.816060
v -0.619794 0.355825 -10.747272
v -0.728801 -0.355825 -10.880097
v -0.647915 -0.488795 -10.934143
v -0.647915 0.488795 -10.934143
v -0.728801 0.355825 -10.880097
v -0.809800 -0.355825 -11.031636
v -0.719925 -0.488795 -11.068864
v -0.719925 0.488795 -11.068864
v -0.809800 0.355825 -11.031636
v -0.859679 -0.355825 -11.196066
v -0.764268 -0.488795 -11.215044
v -0.764268 0.488795 -11.215044
v -0.859679 0.355825 -11.196066
v -0.876521 -0.355825 -11.367066
v -0.779241 -0.488795 -11.367066
v -0.779241 0.488795 -11.367066
v -0.876521 0.355825 -11.367066
v -0.859679 -0.355825 -11.538067
v -0.764268 -0.488795 -11.519089
v -0.764268 0.488795 -11.519089
v -0.859679 0.355825 -11.538067
v -0.809800 -0.355825 -11.702497
v -0.719925 -0.488795 -11.665269
v -0.719925 0.488795 -11.665269
v -0.809800 0.355825 -11.702497
v -0.728801 -0.355825 -11.854035
v -0.647915 -0.488795 -11.799990
v -0.647915 0.488795 -11.799990
v -0.728801 0.355825 -11.854035
v -0.619794 -0.355825 -11.986860
v -0.551007 -0.488795 -11.918073
v -0.551007 0.488795 -11.918073
v -0.619794 0.355825 -11.986860
v -0.486969 -0.355825 -12.095867
v -0.432923 -0.488795 -12.014981
v -0.432923 0.488795 -12.014981
v -0.486969 0.355825 -12.095867
v -0.335430 -0.355825 -12.176867
v -0.298203 -0.488795 -12.086991
v -0.298203 0.488795 -12.086991
v -0.335430 0.355825 -12.176867
v -0.171001 -0.355825 -12.226746
v -0.152022 -0.488795 -12.131334
v -0.152022 0.488795 -12.131334
v -0.171001 0.355825 -12.226746
vn 0.0980 -0.0000 -0.9952
vn 0.0944 0.9798 -0.1765
vn 0.1270 0.9798 -0.1547
vn 0.1547 0.9798 -0.1270
vn 0.1765 0.9798 -0.0944
vn 0.1915 0.9798 -0.0581
vn 0.1992 0.9798 -0.0196
vn 0.1992 0.9798 0.0196
vn 0.1915 0.9798 0.0581
vn 0.1765 0.9798 0.0944
vn 0.1547 0.9798 0.1270
vn 0.1270 0.9798 0.1547
vn 0.0944 0.9798 0.1765
vn 0.0581 0.9798 0.1915
vn 0.0196 0.9798 0.1992
vn -0.0196 0.9798 0.1992
vn -0.0581 0.9798 0.1915
vn -0.0944 0.9798 0.1765
vn -0.1270 0.9798 0.1547
vn -0.1547 0.9798 0.1270
vn -0.1765 0.9798 0.0944
vn -0.1915 0.9798 0.0581
vn -0.1992 0.9798 0.0196
vn -0.1992 0.9798 -0.0196
vn -0.1915 0.9798 -0.0581
vn -0.1765 0.9798 -0.0944
vn -0.1547 0.9798 -0.1270
vn -0.1270 0.9798 -0.1547
vn -0.0944 0.9798 -0.1765
vn -0.0581 0.9798 -0.1915
vn 0.0581 -0.9798 -0.1915
vn -0.0000 -1.0000 -0.0000
vn 0.0581 0.9798 -0.1915
vn -0.0980 -0.0000 -0.9952
vn -0.2903 -0.0000 -0.9569
vn -0.4714 -0.0000 -0.8819
vn -0.6344 -0.0000 -0.7730
vn -0.7730 -0.0000 -0.6344
vn -0.8819 -0.0000 -0.4714
vn -0.9569 -0.0000 -0.2903
vn -0.9952 -0.0000 -0.0980
vn -0.9952 -0.0000 0.0980
vn -0.9569 -0.0000 0.2903
vn -0.8819 -0.0000 0.4714
vn -0.7730 -0.0000 0.6344
vn -0.6344 -0.0000 0.7730
vn -0.4714 -0.0000 0.8819
vn -0.2903 -0.0000 0.9569
vn -0.0980 -0.0000 0.9952
vn 0.0980 -0.0000 0.9952
vn 0.2903 -0.0000 0.9569
vn 0.4714 -0.0000 0.8819
vn 0.6344 -0.0000 0.7730
vn 0.7730 -0.0000 0.6344
vn 0.8819 -0.0000 0.4714
vn 0.9569 -0.0000 0.2903
vn 0.9952 -0.0000 0.0980
vn 0.9952 -0.0000 -0.0980
vn 0.9569 -0.0000 -0.2903
vn 0.8819 -0.0000 -0.4714
vn 0.7730 -0.0000 -0.6344
vn 0.6344 -0.0000 -0.7730
vn 0.4714 -0.0000 -0.8819
vn 0.2903 -0.0000 -0.9569
vn -0.0631 0.9761 -0.2080
vn 0.0944 -0.9798 -0.1765
vn 0.1270 -0.9798 -0.1547
vn 0.1547 -0.9798 -0.1270
vn 0.1765 -0.9798 -0.0944
vn 0.1915 -0.9798 -0.0581
vn 0.1992 -0.9798 -0.0196
vn 0.1992 -0.9798 0.0196
vn 0.1915 -0.9798 0.0581
vn 0.1765 -0.9798 0.0944
vn 0.1547 -0.9798 0.1270
vn 0.1270 -0.9798 0.1547
vn 0.0944 -0.9798 0.1765
vn 0.0581 -0.9798 0.1915
vn 0.0196 -0.9798 0.1992
vn -0.0196 -0.9798 0.1992
vn -0.0581 -0.9798 0.1915
vn -0.0944 -0.9798 0.1765
vn -0.1270 -0.9798 0.1547
vn -0.1547 -0.9798 0.1270
vn -0.1765 -0.9798 0.0944
vn -0.1915 -0.9798 0.0581
vn -0.1992 -0.9798 0.0196
vn -0.1992 -0.9798 -0.0196
vn -0.1915 -0.9798 -0.0581
vn -0.1765 -0.9798 -0.0944
vn -0.1547 -0.9798 -0.1270
vn -0.1270 -0.9798 -0.1547
vn -0.0944 -0.9798 -0.1765
vn -0.0581 -0.9798 -0.1915
vn 0.1680 0.9761 0.1379
vn -0.0196 0.9798 -0.1992
vn 0.0196 -0.9798 -0.1992
vn 0.0196 0.9798 -0.1992
vn -0.0000 1.0000 -0.0000
vn -0.0631 0.9761 0.2080
vn 0.1379 -0.9761 -0.1680
vn -0.2080 -0.9761 0.0631
vn 0.2163 0.9761 -0.0213
vn -0.1917 0.9761 -0.1025
vn 0.1379 -0.9761 0.1680
vn -0.0213 -0.9761 -0.2163
vn -0.1025 -0.9761 0.1917
vn 0.1379 0.9761 -0.1680
vn -0.2080 0.9761 0.0631
vn 0.2163 -0.9761 0.0213
vn -0.1680 -0.9761 -0.1379
vn 0.1379 0.9761 0.1680
vn -0.0213 0.9761 -0.2163
vn -0.1025 0.9761 0.1917
vn 0.1680 -0.9761 -0.1379
vn -0.2163 -0.9761 0.0213
vn 0.2163 0.9761 0.0213
vn -0.1680 0.9761 -0.1379
vn 0.1025 -0.9761 0.1917
vn 0.0213 -0.9761 -0.2163
vn -0.1379 -0.9761 0.1680
vn 0.1680 0.9761 -0.1379
vn -0.2163 0.9761 0.0213
vn 0.2080 -0.9761 0.0631
vn -0.1379 -0.9761 -0.1680
vn 0.1025 0.9761 0.1917
vn 0.0213 0.9761 -0.2163
vn -0.1379 0.9761 0.1680
vn 0.1917 -0.9761 -0.1025
vn -0.2163 -0.9761 -0.0213
vn 0.2080 0.9761 0.0631
vn -0.1379 0.9761 -0.1680
vn 0.0631 -0.9761 0.2080
vn 0.0631 -0.9761 -0.2080
vn -0.1680 -0.9761 0.1379
vn 0.1917 0.9761 -0.1025
vn -0.2163 0.9761 -0.0213
vn 0.1917 -0.9761 0.1025
vn -0.0213 -0.9761 0.2163
vn -0.1025 -0.9761 -0.1917
vn 0.0631 0.9761 0.2080
vn 0.0631 0.9761 -0.2080
vn -0.1680 0.9761 0.1379
vn 0.2080 -0.9761 -0.0631
vn 0.0213 -0.9761 0.2163
vn -0.2080 -0.9761 -0.0631
vn 0.1917 0.9761 0.1025
vn -0.1025 0.9761 -0.1917
vn -0.0213 0.9761 0.2163
vn 0.1025 -0.9761 -0.1917
vn 0.0213 0.9761 0.2163
vn -0.1917 -0.9761 0.1025
vn 0.2080 0.9761 -0.0631
vn -0.2080 0.9761 -0.0631
vn 0.1680 -0.9761 0.1379
vn -0.0631 -0.9761 -0.2080
vn -0.0631 -0.9761 0.2080
vn 0.1025 0.9761 -0.1917
vn -0.1917 0.9761 0.1025
vn 0.2163 -0.9761 -0.0213
vn -0.1917 -0.9761 -0.1025
vn 0.0792 -0.5886 -0.8045
vn 0.0792 0.5886 -0.8045
vn 0.2347 -0.5886 -0.7736
vn 0.2347 0.5886 -0.7736
vn 0.3811 -0.5886 -0.7130
vn 0.3811 0.5886 -0.7130
vn 0.5129 -0.5886 -0.6249
vn 0.5129 0.5886 -0.6249
vn 0.6249 -0.5886 -0.5129
vn 0.6249 0.5886 -0.5129
vn 0.7130 -0.5886 -0.3811
vn 0.7130 0.5886 -0.3811
vn 0.7736 -0.5886 -0.2347
vn 0.7736 0.5886 -0.2347
vn 0.8045 -0.5886 -0.0792
vn 0.8045 0.5886 -0.0792
vn 0.8045 -0.5886 0.0792
vn 0.8045 0.5886 0.0792
vn 0.7736 -0.5886 0.2347
vn 0.7736 0.5886 0.2347
vn 0.7130 -0.5886 0.3811
vn 0.7130 0.5886 0.3811
vn 0.6249 -0.5886 0.5129
vn 0.6249 0.5886 0.5129
vn 0.5129 -0.5886 0.6249
vn 0.5129 0.5886 0.6249
vn 0.3811 -0.5886 0.7130
vn 0.3811 0.5886 0.7130
vn 0.2347 -0.5886 0.7736
vn 0.2347 0.5886 0.7736
vn 0.0792 -0.5886 0.8045
vn 0.0792 0.5886 0.8045
vn -0.0792 -0.5886 0.8045
vn -0.0792 0.5886 0.8045
vn -0.2347 -0.5886 0.7736
vn -0.2347 0.5886 0.7736
vn -0.3811 -0.5886 0.7130
vn -0.3811 0.5886 0.7130
vn -0.5129 -0.5886 0.6249
vn -0.5129 0.5886 0.6249
vn -0.6249 -0.5886 0.5129
vn -0.6249 0.5886 0.5129
vn -0.7130 -0.5886 0.3811
vn -0.7130 0.5886 0.3811
vn -0.7736 -0.5886 0.2347
vn -0.7736 0.5886 0.2347
vn -0.8045 -0.5886 0.0792
vn -0.8045 0.5886 0.0792
vn -0.8045 -0.5886 -0.0792
vn -0.8045 0.5886 -0.0792
vn -0.7736 -0.5886 -0.2347
vn -0.7736 0.5886 -0.2347
vn -0.7130 -0.5886 -0.3811
vn -0.7130 0.5886 -0.3811
vn -0.6249 -0.5886 -0.5129
vn -0.6249 0.5886 -0.5129
vn -0.5129 -0.5886 -0.6249
vn -0.5129 0.5886 -0.6249
vn -0.3811 -0.5886 -0.7130
vn -0.3811 0.5886 -0.7130
vn -0.2347 -0.5886 -0.7736
vn -0.2347 0.5886 -0.7736
vn -0.0792 -0.5886 -0.8045
vn -0.0792 0.5886 -0.8045
vn -0.0196 -0.9798 -0.1992
vt 0.504807 0.173537
vt 0.510388 0.421890
vt 0.495556 0.171642
vt 0.519131 0.418313
vt 0.486852 0.167977
vt 0.527001 0.413102
vt 0.479031 0.162683
vt 0.533703 0.406458
vt 0.472392 0.155963
vt 0.538979 0.398631
vt 0.467192 0.148074
vt 0.542627 0.389938
vt 0.463628 0.139317
vt 0.544507 0.380706
vt 0.461841 0.130032
vt 0.544549 0.371284
vt 0.461904 0.120572
vt 0.542749 0.362031
vt 0.463812 0.111305
vt 0.539200 0.353289
vt 0.467493 0.102586
vt 0.534013 0.345410
vt 0.472806 0.094754
vt 0.527394 0.338689
vt 0.479546 0.088109
vt 0.519587 0.333387
vt 0.487454 0.082908
vt 0.510888 0.329711
vt 0.496219 0.079359
vt 0.501637 0.327803
vt 0.505507 0.077590
vt 0.492188 0.327737
vt 0.514959 0.077669
vt 0.482906 0.329518
vt 0.524212 0.079589
vt 0.474141 0.333083
vt 0.532907 0.083278
vt 0.466239 0.338291
vt 0.540712 0.088591
vt 0.459501 0.344945
vt 0.547329 0.095325
vt 0.454189 0.352789
vt 0.552505 0.103221
vt 0.450515 0.361522
vt 0.556059 0.111963
vt 0.448616 0.370802
vt 0.557836 0.121228
vt 0.448569 0.380271
vt 0.557771 0.130660
vt 0.450371 0.389564
vt 0.555865 0.139900
vt 0.453962 0.398316
vt 0.552190 0.148599
vt 0.459192 0.406198
vt 0.546886 0.156417
vt 0.465860 0.412905
vt 0.540158 0.163051
vt 0.473705 0.418178
vt 0.532265 0.168245
vt 0.482423 0.421818
vt 0.523517 0.171806
vt 0.514247 0.173590
vt 0.501120 0.423709
vt 0.491681 0.423685
vt 0.370822 0.973676
vt 0.370105 0.991021
vt 0.370105 0.435997
vt 0.367341 0.453341
vt 0.363879 0.470686
vt 0.361956 0.488030
vt 0.360492 0.505375
vt 0.359189 0.522719
vt 0.358615 0.540064
vt 0.358615 0.557408
vt 0.358615 0.574753
vt 0.359189 0.592097
vt 0.360492 0.609442
vt 0.361956 0.626786
vt 0.363879 0.644131
vt 0.367341 0.661475
vt 0.370106 0.678820
vt 0.370822 0.696164
vt 0.369559 0.713509
vt 0.366827 0.730853
vt 0.363677 0.748198
vt 0.361375 0.765542
vt 0.360925 0.782887
vt 0.359841 0.800231
vt 0.359209 0.817576
vt 0.359209 0.834920
vt 0.359209 0.852265
vt 0.359841 0.869609
vt 0.360925 0.886954
vt 0.361375 0.904298
vt 0.363677 0.921643
vt 0.366827 0.938987
vt 0.369559 0.956332
vt 0.325076 0.991021
vt 0.325076 0.435997
vt 0.327841 0.453341
vt 0.331303 0.470686
vt 0.333226 0.488030
vt 0.334690 0.505375
vt 0.335993 0.522719
vt 0.336567 0.540064
vt 0.336567 0.557408
vt 0.336567 0.574753
vt 0.335993 0.592097
vt 0.334690 0.609442
vt 0.333226 0.626786
vt 0.331303 0.644131
vt 0.327841 0.661475
vt 0.325077 0.678820
vt 0.324080 0.696164
vt 0.325623 0.713509
vt 0.328355 0.730853
vt 0.331505 0.748198
vt 0.333807 0.765542
vt 0.334257 0.782887
vt 0.335341 0.800231
vt 0.335973 0.817576
vt 0.335973 0.834920
vt 0.335973 0.852265
vt 0.335341 0.869609
vt 0.334257 0.886954
vt 0.333807 0.904298
vt 0.331505 0.921643
vt 0.328355 0.938987
vt 0.325623 0.956332
vt 0.324080 0.973676
vt 0.502624 0.439447
vt 0.515708 0.189332
vt 0.490090 0.439399
vt 0.528012 0.186943
vt 0.477800 0.436935
vt 0.539628 0.182239
vt 0.466231 0.432099
vt 0.550088 0.175329
vt 0.455805 0.425116
vt 0.559021 0.166530
vt 0.446924 0.416224
vt 0.566075 0.156151
vt 0.439981 0.405747
vt 0.570940 0.144592
vt 0.435192 0.394118
vt 0.573481 0.132326
vt 0.432789 0.381768
vt 0.573560 0.119803
vt 0.432829 0.369178
vt 0.571216 0.107496
vt 0.435357 0.356836
vt 0.566503 0.095879
vt 0.440244 0.345228
vt 0.559623 0.085398
vt 0.447307 0.334812
vt 0.550831 0.076477
vt 0.456267 0.325978
vt 0.540477 0.069413
vt 0.466773 0.319065
vt 0.528936 0.064500
vt 0.478410 0.314344
vt 0.516647 0.061927
vt 0.490747 0.311967
vt 0.504077 0.061816
vt 0.503314 0.312068
vt 0.491736 0.064179
vt 0.515599 0.314626
vt 0.480092 0.068887
vt 0.527136 0.319528
vt 0.469578 0.075794
vt 0.537490 0.326571
vt 0.460632 0.084634
vt 0.546285 0.335476
vt 0.453572 0.095023
vt 0.553171 0.345941
vt 0.448681 0.106608
vt 0.557892 0.357541
vt 0.446142 0.118928
vt 0.560252 0.369830
vt 0.446081 0.131499
vt 0.560197 0.382333
vt 0.448456 0.143833
vt 0.557691 0.394585
vt 0.453206 0.155456
vt 0.552869 0.406136
vt 0.460103 0.165940
vt 0.545858 0.416523
vt 0.468943 0.174854
vt 0.536960 0.425340
vt 0.479339 0.181861
vt 0.526523 0.432281
vt 0.490890 0.186741
vt 0.514918 0.437019
vt 0.503176 0.189243
vt 0.504997 0.464276
vt 0.311614 0.973676
vt 0.506821 0.483496
vt 0.383449 0.973676
vt 0.519818 0.233387
vt 0.518017 0.214167
vt 0.311614 0.991021
vt 0.311614 0.435997
vt 0.485801 0.483496
vt 0.487608 0.464126
vt 0.535043 0.210694
vt 0.383449 0.991021
vt 0.383449 0.435997
vt 0.540605 0.229525
vt 0.311614 0.453341
vt 0.465041 0.479473
vt 0.470549 0.460728
vt 0.551229 0.204340
vt 0.383449 0.453341
vt 0.560183 0.221500
vt 0.311614 0.470686
vt 0.445333 0.471439
vt 0.454473 0.454010
vt 0.565730 0.194671
vt 0.383449 0.470686
vt 0.577957 0.210030
vt 0.311614 0.488030
vt 0.427436 0.459618
vt 0.439998 0.444257
vt 0.578090 0.182353
vt 0.383449 0.488030
vt 0.593404 0.195103
vt 0.311614 0.505375
vt 0.412479 0.444378
vt 0.427533 0.432061
vt 0.587952 0.167993
vt 0.383449 0.505375
vt 0.605346 0.177197
vt 0.311614 0.522719
vt 0.400671 0.426764
vt 0.417961 0.417446
vt 0.594672 0.151926
vt 0.383449 0.522719
vt 0.613409 0.157497
vt 0.311614 0.540064
vt 0.392406 0.406997
vt 0.411382 0.401266
vt 0.598187 0.134912
vt 0.383449 0.540064
vt 0.617480 0.136762
vt 0.311614 0.557408
vt 0.388471 0.386008
vt 0.407870 0.384140
vt 0.598345 0.117551
vt 0.383449 0.557408
vt 0.617497 0.115820
vt 0.311614 0.574753
vt 0.388424 0.364788
vt 0.407971 0.366645
vt 0.595048 0.100504
vt 0.383449 0.574753
vt 0.613751 0.095169
vt 0.311614 0.592097
vt 0.392565 0.343732
vt 0.411554 0.349553
vt 0.588457 0.084454
vt 0.383449 0.592097
vt 0.605952 0.075361
vt 0.311614 0.609442
vt 0.400998 0.324074
vt 0.418164 0.333347
vt 0.579069 0.069790
vt 0.383449 0.609442
vt 0.594211 0.057649
vt 0.311614 0.626786
vt 0.412821 0.306398
vt 0.428049 0.318895
vt 0.566782 0.057409
vt 0.383449 0.626786
vt 0.579487 0.042440
vt 0.311614 0.644131
vt 0.428048 0.291175
vt 0.440581 0.306699
vt 0.552312 0.047650
vt 0.383449 0.644131
vt 0.561864 0.030200
vt 0.311614 0.661475
vt 0.446141 0.279526
vt 0.455134 0.297010
vt 0.536316 0.040717
vt 0.383449 0.661475
vt 0.542053 0.021954
vt 0.311614 0.678820
vt 0.465857 0.271734
vt 0.471316 0.290388
vt 0.519255 0.037076
vt 0.383449 0.678820
vt 0.521295 0.017781
vt 0.311614 0.696164
vt 0.486695 0.267637
vt 0.488476 0.287239
vt 0.501828 0.037080
vt 0.383449 0.696164
vt 0.500060 0.017475
vt 0.311614 0.713509
vt 0.507926 0.267933
vt 0.505899 0.287222
vt 0.484668 0.040217
vt 0.383449 0.713509
vt 0.479220 0.021562
vt 0.311614 0.730853
vt 0.528675 0.272094
vt 0.522953 0.290850
vt 0.468487 0.046822
vt 0.383449 0.730853
vt 0.459506 0.029345
vt 0.311614 0.748198
vt 0.548477 0.280322
vt 0.538945 0.297766
vt 0.453946 0.056486
vt 0.383449 0.748198
vt 0.441422 0.040987
vt 0.311614 0.765542
vt 0.566094 0.292540
vt 0.553410 0.307505
vt 0.441443 0.068705
vt 0.383449 0.765542
vt 0.426222 0.056213
vt 0.311614 0.782887
vt 0.580815 0.307726
vt 0.565697 0.319866
vt 0.431549 0.083134
vt 0.383449 0.782887
vt 0.414411 0.073864
vt 0.311614 0.800231
vt 0.592553 0.325413
vt 0.575086 0.334507
vt 0.424930 0.099309
vt 0.383449 0.800231
vt 0.405982 0.093481
vt 0.311614 0.817576
vt 0.600352 0.345191
vt 0.581683 0.350531
vt 0.421335 0.116366
vt 0.383449 0.817576
vt 0.401832 0.114492
vt 0.311614 0.834920
vt 0.604100 0.365806
vt 0.584991 0.367546
vt 0.421210 0.133822
vt 0.383449 0.834920
vt 0.401861 0.135662
vt 0.311614 0.852265
vt 0.604089 0.386694
vt 0.584854 0.384869
vt 0.424682 0.150914
vt 0.383449 0.852265
vt 0.405762 0.156588
vt 0.311614 0.869609
vt 0.600045 0.407351
vt 0.581384 0.401843
vt 0.431201 0.167065
vt 0.383449 0.869609
vt 0.413964 0.176288
vt 0.311614 0.886954
vt 0.592057 0.426940
vt 0.574750 0.417884
vt 0.440681 0.181677
vt 0.383449 0.886954
vt 0.425665 0.193832
vt 0.311614 0.904298
vt 0.580314 0.444694
vt 0.565037 0.432314
vt 0.453011 0.193984
vt 0.383449 0.904298
vt 0.440394 0.208974
vt 0.311614 0.921643
vt 0.565183 0.459899
vt 0.552611 0.444535
vt 0.467532 0.203636
vt 0.383449 0.921643
vt 0.458058 0.221147
vt 0.311614 0.938987
vt 0.547282 0.471542
vt 0.538204 0.454335
vt 0.483549 0.210504
vt 0.383449 0.938987
vt 0.477925 0.229329
vt 0.311614 0.956332
vt 0.527642 0.479624
vt 0.522021 0.460760
vt 0.500619 0.213976
vt 0.383449 0.956332
vt 0.498771 0.233387
s 0
f 401/507/291 531/640/291 536/648/291 402/508/291
f 543/660/292 539/654/292 470/578/292 472/580/292
f 547/666/293 543/660/293 472/580/293 474/582/293
f 551/672/294 547/666/294 474/582/294 476/584/294
f 555/678/295 551/672/295 476/584/295 478/586/295
f 559/684/296 555/678/296 478/586/296 480/588/296
f 563/690/297 559/684/297 480/588/297 482/590/297
f 567/696/298 563/690/298 482/590/298 484/592/298
f 571/702/299 567/696/299 484/592/299 486/594/299
f 575/708/300 571/702/300 486/594/300 488/596/300
f 579/714/301 575/708/301 488/596/301 490/598/301
f 583/720/302 579/714/302 490/598/302 492/600/302
f 587/726/303 583/720/303 492/600/303 494/602/303
f 591/732/304 587/726/304 494/602/304 496/604/304
f 595/738/305 591/732/305 496/604/305 498/606/305
f 599/744/306 595/738/306 498/606/306 500/608/306
f 603/750/307 599/744/307 500/608/307 502/610/307
f 607/756/308 603/750/308 502/610/308 504/612/308
f 611/762/309 607/756/309 504/612/309 506/614/309
f 615/768/310 611/762/310 506/614/310 508/616/310
f 619/774/311 615/768/311 508/616/311 510/618/311
f 623/780/312 619/774/312 510/618/312 512/620/312
f 627/786/313 623/780/313 512/620/313 514/622/313
f 631/792/314 627/786/314 514/622/314 516/624/314
f 635/798/315 631/792/315 516/624/315 518/626/315
f 639/804/316 635/798/316 518/626/316 520/628/316
f 643/810/317 639/804/317 520/628/317 522/630/317
f 647/816/318 643/810/318 522/630/318 524/632/318
f 651/822/319 647/816/319 524/632/319 526/634/319
f 655/828/320 651/822/320 526/634/320 528/636/320
f 534/646/321 538/653/321 469/577/321 467/575/321
f 399/505/322 400/506/322 396/502/322 394/500/322 392/498/322 390/496/322 388/494/322 386/492/322 384/490/322 382/488/322 380/486/322 378/484/322 376/482/322 374/480/322 372/478/322 370/476/322 368/474/322 366/472/322 364/470/322 362/468/322 360/466/322 358/464/322 356/462/322 354/460/322 352/458/322 350/456/322 348/454/322 346/452/322 344/450/322 342/448/322 340/446/322 338/444/322
f 539/654/323 535/647/323 468/576/323 470/578/323
f 530/638/291 464/572/291 433/540/291 533/643/291
f 463/571/324 432/539/324 401/507/324 464/572/324
f 462/570/325 431/538/325 432/539/325 463/571/325
f 461/569/326 430/537/326 431/538/326 462/570/326
f 460/568/327 429/536/327 430/537/327 461/569/327
f 459/567/328 428/535/328 429/536/328 460/568/328
f 458/566/329 427/534/329 428/535/329 459/567/329
f 457/565/330 426/533/330 427/534/330 458/566/330
f 456/564/331 425/532/331 426/533/331 457/565/331
f 455/563/332 424/531/332 425/532/332 456/564/332
f 454/562/333 423/530/333 424/531/333 455/563/333
f 453/561/334 422/529/334 423/530/334 454/562/334
f 452/560/335 421/528/335 422/529/335 453/561/335
f 451/559/336 420/527/336 421/528/336 452/560/336
f 450/558/337 419/526/337 420/527/337 451/559/337
f 449/557/338 418/525/338 419/526/338 450/558/338
f 448/556/339 417/524/339 418/525/339 449/557/339
f 447/555/340 416/523/340 417/524/340 448/556/340
f 446/554/341 415/522/341 416/523/341 447/555/341
f 445/553/342 414/521/342 415/522/342 446/554/342
f 444/552/343 413/520/343 414/521/343 445/553/343
f 443/551/344 412/519/344 413/520/344 444/552/344
f 442/550/345 411/518/345 412/519/345 443/551/345
f 441/549/346 410/517/346 411/518/346 442/550/346
f 440/548/347 409/516/347 410/517/347 441/549/347
f 439/547/348 408/515/348 409/516/348 440/548/348
f 438/546/349 407/514/349 408/515/349 439/547/349
f 437/545/350 406/513/350 407/514/350 438/546/350
f 436/544/351 405/512/351 406/513/351 437/545/351
f 435/543/352 404/511/352 405/512/352 436/544/352
f 434/542/353 403/510/353 404/511/353 435/543/353
f 433/541/354 402/509/354 403/510/354 434/542/354
f 464/572/291 401/507/291 402/508/291 433/540/291
f 496/604/355 494/602/355 371/477/355 369/475/355
f 538/653/356 542/659/356 471/579/356 469/577/356
f 542/659/357 546/665/357 473/581/357 471/579/357
f 546/665/358 550/671/358 475/583/358 473/581/358
f 550/671/359 554/677/359 477/585/359 475/583/359
f 554/677/360 558/683/360 479/587/360 477/585/360
f 558/683/361 562/689/361 481/589/361 479/587/361
f 562/689/362 566/695/362 483/591/362 481/589/362
f 566/695/363 570/701/363 485/593/363 483/591/363
f 570/701/364 574/707/364 487/595/364 485/593/364
f 574/707/365 578/713/365 489/597/365 487/595/365
f 578/713/366 582/719/366 491/599/366 489/597/366
f 582/719/367 586/725/367 493/601/367 491/599/367
f 586/725/368 590/731/368 495/603/368 493/601/368
f 590/731/369 594/737/369 497/605/369 495/603/369
f 594/737/370 598/743/370 499/607/370 497/605/370
f 598/743/371 602/749/371 501/609/371 499/607/371
f 602/749/372 606/755/372 503/611/372 501/609/372
f 606/755/373 610/761/373 505/613/373 503/611/373
f 610/761/374 614/767/374 507/615/374 505/613/374
f 614/767/375 618/773/375 509/617/375 507/615/375
f 618/773/376 622/779/376 511/619/376 509/617/376
f 622/779/377 626/785/377 513/621/377 511/619/377
f 626/785/378 630/791/378 515/623/378 513/621/378
f 630/791/379 634/797/379 517/625/379 515/623/379
f 634/797/380 638/803/380 519/627/380 517/625/380
f 638/803/381 642/809/381 521/629/381 519/627/381
f 642/809/382 646/815/382 523/631/382 521/629/382
f 646/815/383 650/821/383 525/633/383 523/631/383
f 650/821/384 654/827/384 527/635/384 525/633/384
f 522/630/385 520/628/385 345/451/385 343/449/385
f 653/825/324 463/571/324 464/572/324 530/638/324
f 532/642/386 655/828/386 528/636/386 466/574/386
f 533/644/354 433/541/354 434/542/354 537/651/354
f 402/509/354 536/649/354 540/655/354 403/510/354
f 537/651/353 434/542/353 435/543/353 541/657/353
f 403/510/353 540/655/353 544/661/353 404/511/353
f 541/657/352 435/543/352 436/544/352 545/663/352
f 404/511/352 544/661/352 548/667/352 405/512/352
f 545/663/351 436/544/351 437/545/351 549/669/351
f 405/512/351 548/667/351 552/673/351 406/513/351
f 549/669/350 437/545/350 438/546/350 553/675/350
f 406/513/350 552/673/350 556/679/350 407/514/350
f 553/675/349 438/546/349 439/547/349 557/681/349
f 407/514/349 556/679/349 560/685/349 408/515/349
f 557/681/348 439/547/348 440/548/348 561/687/348
f 408/515/348 560/685/348 564/691/348 409/516/348
f 561/687/347 440/548/347 441/549/347 565/693/347
f 409/516/347 564/691/347 568/697/347 410/517/347
f 565/693/346 441/549/346 442/550/346 569/699/346
f 410/517/346 568/697/346 572/703/346 411/518/346
f 569/699/345 442/550/345 443/551/345 573/705/345
f 411/518/345 572/703/345 576/709/345 412/519/345
f 573/705/344 443/551/344 444/552/344 577/711/344
f 412/519/344 576/709/344 580/715/344 413/520/344
f 577/711/343 444/552/343 445/553/343 581/717/343
f 413/520/343 580/715/343 584/721/343 414/521/343
f 581/717/342 445/553/342 446/554/342 585/723/342
f 414/521/342 584/721/342 588/727/342 415/522/342
f 585/723/341 446/554/341 447/555/341 589/729/341
f 415/522/341 588/727/341 592/733/341 416/523/341
f 589/729/340 447/555/340 448/556/340 593/735/340
f 416/523/340 592/733/340 596/739/340 417/524/340
f 593/735/339 448/556/339 449/557/339 597/741/339
f 417/524/339 596/739/339 600/745/339 418/525/339
f 597/741/338 449/557/338 450/558/338 601/747/338
f 418/525/338 600/745/338 604/751/338 419/526/338
f 601/747/337 450/558/337 451/559/337 605/753/337
f 419/526/337 604/751/337 608/757/337 420/527/337
f 605/753/336 451/559/336 452/560/336 609/759/336
f 420/527/336 608/757/336 612/763/336 421/528/336
f 609/759/335 452/560/335 453/561/335 613/765/335
f 421/528/335 612/763/335 616/769/335 422/529/335
f 613/765/334 453/561/334 454/562/334 617/771/334
f 422/529/334 616/769/334 620/775/334 423/530/334
f 617/771/333 454/562/333 455/563/333 621/777/333
f 423/530/333 620/775/333 624/781/333 424/531/333
f 621/777/332 455/563/332 456/564/332 625/783/332
f 424/531/332 624/781/332 628/787/332 425/532/332
f 625/783/331 456/564/331 457/565/331 629/789/331
f 425/532/331 628/787/331 632/793/331 426/533/331
f 629/789/330 457/565/330 458/566/330 633/795/330
f 426/533/330 632/793/330 636/799/330 427/534/330
f 633/795/329 458/566/329 459/567/329 637/801/329
f 427/534/329 636/799/329 640/805/329 428/535/329
f 637/801/328 459/567/328 460/568/328 641/807/328
f 428/535/328 640/805/328 644/811/328 429/536/328
f 641/807/327 460/568/327 461/569/327 645/813/327
f 429/536/327 644/811/327 648/817/327 430/537/327
f 645/813/326 461/569/326 462/570/326 649/819/326
f 430/537/326 648/817/326 652/823/326 431/538/326
f 649/819/325 462/570/325 463/571/325 653/825/325
f 431/538/325 652/823/325 656/829/325 432/539/325
f 529/637/387 534/646/387 467/575/387 465/573/387
f 432/539/324 656/829/324 531/640/324 401/507/324
f 535/647/388 532/642/388 466/574/388 468/576/388
f 397/503/389 398/504/389 337/443/389 339/445/389 341/447/389 343/449/389 345/451/389 347/453/389 349/455/389 351/457/389 353/459/389 355/461/389 357/463/389 359/465/389 361/467/389 363/469/389 365/471/389 367/473/389 369/475/389 371/477/389 373/479/389 375/481/389 377/483/389 379/485/389 381/487/389 383/489/389 385/491/389 387/493/389 389/495/389 391/497/389 393/499/389 395/501/389
f 470/578/390 468/576/390 397/503/390 395/501/390
f 503/611/391 505/613/391 360/466/391 362/468/391
f 477/585/392 479/587/392 386/492/392 388/494/392
f 514/622/393 512/620/393 353/459/393 351/457/393
f 488/596/394 486/594/394 379/485/394 377/483/394
f 521/629/395 523/631/395 342/448/395 344/450/395
f 495/603/396 497/605/396 368/474/396 370/476/396
f 469/577/397 471/579/397 394/500/397 396/502/397
f 506/614/398 504/612/398 361/467/398 359/465/398
f 480/588/399 478/586/399 387/493/399 385/491/399
f 513/621/400 515/623/400 350/456/400 352/458/400
f 487/595/401 489/597/401 376/482/401 378/484/401
f 524/632/402 522/630/402 343/449/402 341/447/402
f 498/606/403 496/604/403 369/475/403 367/473/403
f 472/580/404 470/578/404 395/501/404 393/499/404
f 505/613/405 507/615/405 358/464/405 360/466/405
f 479/587/406 481/589/406 384/490/406 386/492/406
f 516/624/407 514/622/407 351/457/407 349/455/407
f 490/598/408 488/596/408 377/483/408 375/481/408
f 523/631/409 525/633/409 340/446/409 342/448/409
f 497/605/410 499/607/410 366/472/410 368/474/410
f 471/579/411 473/581/411 392/498/411 394/500/411
f 508/616/412 506/614/412 359/465/412 357/463/412
f 482/590/413 480/588/413 385/491/413 383/489/413
f 515/623/414 517/625/414 348/454/414 350/456/414
f 489/597/415 491/599/415 374/480/415 376/482/415
f 526/634/416 524/632/416 341/447/416 339/445/416
f 500/608/417 498/606/417 367/473/417 365/471/417
f 474/582/418 472/580/418 393/499/418 391/497/418
f 507/615/419 509/617/419 356/462/419 358/464/419
f 481/589/420 483/591/420 382/488/420 384/490/420
f 518/626/421 516/624/421 349/455/421 347/453/421
f 492/600/422 490/598/422 375/481/422 373/479/422
f 525/633/423 527/635/423 338/444/423 340/446/423
f 499/607/424 501/609/424 364/470/424 366/472/424
f 473/581/425 475/583/425 390/496/425 392/498/425
f 510/618/426 508/616/426 357/463/426 355/461/426
f 484/592/427 482/590/427 383/489/427 381/487/427
f 517/625/428 519/627/428 346/452/428 348/454/428
f 465/573/429 467/575/429 400/506/429 399/505/429
f 491/599/430 493/601/430 372/478/430 374/480/430
f 528/636/431 526/634/431 339/445/431 337/443/431
f 502/610/432 500/608/432 365/471/432 363/469/432
f 476/584/433 474/582/433 391/497/433 389/495/433
f 509/617/434 511/619/434 354/460/434 356/462/434
f 527/635/435 465/573/435 399/505/435 338/444/435
f 483/591/436 485/593/436 380/486/436 382/488/436
f 520/628/437 518/626/437 347/453/437 345/451/437
f 494/602/438 492/600/438 373/479/438 371/477/438
f 468/576/439 466/574/439 398/504/439 397/503/439
f 501/609/440 503/611/440 362/468/440 364/470/440
f 466/574/441 528/636/441 337/443/441 398/504/441
f 475/583/442 477/585/442 388/494/442 390/496/442
f 512/620/443 510/618/443 355/461/443 353/459/443
f 486/594/444 484/592/444 381/487/444 379/485/444
f 519/627/445 521/629/445 344/450/445 346/452/445
f 493/601/446 495/603/446 370/476/446 372/478/446
f 467/575/447 469/577/447 396/502/447 400/506/447
f 504/612/448 502/610/448 363/469/448 361/467/448
f 478/586/449 476/584/449 389/495/449 387/493/449
f 511/619/450 513/621/450 352/458/450 354/460/450
f 485/593/451 487/595/451 378/484/451 380/486/451
f 530/639/452 533/645/452 534/646/452 529/637/452
f 536/650/453 531/641/453 532/642/453 535/647/453
f 533/645/454 537/652/454 538/653/454 534/646/454
f 540/656/455 536/650/455 535/647/455 539/654/455
f 537/652/456 541/658/456 542/659/456 538/653/456
f 544/662/457 540/656/457 539/654/457 543/660/457
f 541/658/458 545/664/458 546/665/458 542/659/458
f 548/668/459 544/662/459 543/660/459 547/666/459
f 545/664/460 549/670/460 550/671/460 546/665/460
f 552/674/461 548/668/461 547/666/461 551/672/461
f 549/670/462 553/676/462 554/677/462 550/671/462
f 556/680/463 552/674/463 551/672/463 555/678/463
f 553/676/464 557/682/464 558/683/464 554/677/464
f 560/686/465 556/680/465 555/678/465 559/684/465
f 557/682/466 561/688/466 562/689/466 558/683/466
f 564/692/467 560/686/467 559/684/467 563/690/467
f 561/688/468 565/694/468 566/695/468 562/689/468
f 568/698/469 564/692/469 563/690/469 567/696/469
f 565/694/470 569/700/470 570/701/470 566/695/470
f 572/704/471 568/698/471 567/696/471 571/702/471
f 569/700/472 573/706/472 574/707/472 570/701/472
f 576/710/473 572/704/473 571/702/473 575/708/473
f 573/706/474 577/712/474 578/713/474 574/707/474
f 580/716/475 576/710/475 575/708/475 579/714/475
f 577/712/476 581/718/476 582/719/476 578/713/476
f 584/722/477 580/716/477 579/714/477 583/720/477
f 581/718/478 585/724/478 586/725/478 582/719/478
f 588/728/479 584/722/479 583/720/479 587/726/479
f 585/724/480 589/730/480 590/731/480 586/725/480
f 592/734/481 588/728/481 587/726/481 591/732/481
f 589/730/482 593/736/482 594/737/482 590/731/482
f 596/740/483 592/734/483 591/732/483 595/738/483
f 593/736/484 597/742/484 598/743/484 594/737/484
f 600/746/485 596/740/485 595/738/485 599/744/485
f 597/742/486 601/748/486 602/749/486 598/743/486
f 604/752/487 600/746/487 599/744/487 603/750/487
f 601/748/488 605/754/488 606/755/488 602/749/488
f 608/758/489 604/752/489 603/750/489 607/756/489
f 605/754/490 609/760/490 610/761/490 606/755/490
f 612/764/491 608/758/491 607/756/491 611/762/491
f 609/760/492 613/766/492 614/767/492 610/761/492
f 616/770/493 612/764/493 611/762/493 615/768/493
f 613/766/494 617/772/494 618/773/494 614/767/494
f 620/776/495 616/770/495 615/768/495 619/774/495
f 617/772/496 621/778/496 622/779/496 618/773/496
f 624/782/497 620/776/497 619/774/497 623/780/497
f 621/778/498 625/784/498 626/785/498 622/779/498
f 628/788/499 624/782/499 623/780/499 627/786/499
f 625/784/500 629/790/500 630/791/500 626/785/500
f 632/794/501 628/788/501 627/786/501 631/792/501
f 629/790/502 633/796/502 634/797/502 630/791/502
f 636/800/503 632/794/503 631/792/503 635/798/503
f 633/796/504 637/802/504 638/803/504 634/797/504
f 640/806/505 636/800/505 635/798/505 639/804/505
f 637/802/506 641/808/506 642/809/506 638/803/506
f 644/812/507 640/806/507 639/804/507 643/810/507
f 641/808/508 645/814/508 646/815/508 642/809/508
f 648/818/509 644/812/509 643/810/509 647/816/509
f 645/814/510 649/820/510 650/821/510 646/815/510
f 652/824/511 648/818/511 647/816/511 651/822/511
f 649/820/512 653/826/512 654/827/512 650/821/512
f 656/830/513 652/824/513 651/822/513 655/828/513
f 653/826/514 530/639/514 529/637/514 654/827/514
f 531/641/515 656/830/515 655/828/515 532/642/515
f 654/827/516 529/637/516 465/573/516 527/635/516
